<?xml version="1.0" encoding="UTF-8" standalone="no"?>
<!-- Created with Inkscape (http://www.inkscape.org/) -->

<svg
   width="210mm"
   height="243mm"
   viewBox="0 0 210 243"
   version="1.1"
   id="svg1"
   inkscape:version="1.3 (0e150ed, 2023-07-21)"
   sodipodi:docname="wireframe.svg"
   xmlns:inkscape="http://www.inkscape.org/namespaces/inkscape"
   xmlns:sodipodi="http://sodipodi.sourceforge.net/DTD/sodipodi-0.dtd"
   xmlns="http://www.w3.org/2000/svg"
   xmlns:svg="http://www.w3.org/2000/svg">
  <sodipodi:namedview
     id="namedview1"
     pagecolor="#ffffff"
     bordercolor="#000000"
     borderopacity="0.25"
     inkscape:showpageshadow="2"
     inkscape:pageopacity="0.0"
     inkscape:pagecheckerboard="0"
     inkscape:deskcolor="#d1d1d1"
     inkscape:document-units="mm"
     inkscape:zoom="0.53434925"
     inkscape:cx="407.97288"
     inkscape:cy="544.58765"
     inkscape:window-width="1320"
     inkscape:window-height="907"
     inkscape:window-x="153"
     inkscape:window-y="25"
     inkscape:window-maximized="0"
     inkscape:current-layer="layer1" />
  <defs
     id="defs1">
    <rect
       x="46.78588"
       y="428.55866"
       width="308.78681"
       height="82.343149"
       id="rect5" />
    <rect
       x="117.90042"
       y="14.971482"
       width="578.27348"
       height="117.90042"
       id="rect3" />
  </defs>
  <g
     inkscape:label="Layer 1"
     inkscape:groupmode="layer"
     id="layer1">
    <rect
       style="fill:#ffa6ff;fill-opacity:1;stroke-width:3.02672"
       id="rect1"
       width="102.49617"
       height="200.53598"
       x="-0.49515054"
       y="42.087799" />
    <rect
       style="fill:#b2ffb2;fill-opacity:1;stroke-width:3.22509"
       id="rect2"
       width="108.43797"
       height="200.04082"
       x="102.49616"
       y="42.087795" />
    <text
       xml:space="preserve"
       transform="scale(0.26458333)"
       id="text2"
       style="font-size:37.3333px;line-height:1.4;text-align:center;white-space:pre;shape-inside:url(#rect3);display:inline;fill:#b2ffb2;fill-opacity:1;stroke-width:11.8224" />
    <g
       id="text4"
       style="font-size:7.63141px;line-height:1.4;text-align:center;text-anchor:middle;fill:#b2ffb2;stroke-width:2.41666"
       transform="scale(0.94676449,1.0562289)"
       aria-label=" Comparison of Labour Force Participation Rates:&#10;United States of America vs Indonesia">
      <path
         style="fill:#000000;stroke-width:2.41665"
         d="m 21.526633,14.689666 q -0.204945,0.08943 -0.372627,0.167683 -0.163957,0.07825 -0.432248,0.163956 -0.227303,0.0708 -0.495595,0.119241 -0.264565,0.05217 -0.585025,0.05217 -0.603656,0 -1.099251,-0.167682 -0.491868,-0.171409 -0.857043,-0.532857 -0.357722,-0.353996 -0.558941,-0.898032 -0.201219,-0.547763 -0.201219,-1.27066 0,-0.685634 0.193766,-1.225944 0.193767,-0.54031 0.558941,-0.912938 0.353997,-0.3614481 0.853317,-0.5514881 0.503047,-0.19004 1.114156,-0.19004 0.447153,0 0.89058,0.1080619 0.447153,0.108062 0.991189,0.38008 v 0.8756742 h -0.05589 q -0.458332,-0.383806 -0.909211,-0.558941 -0.450879,-0.175135 -0.965105,-0.175135 -0.421069,0 -0.76016,0.137872 -0.335365,0.134146 -0.59993,0.421069 -0.257113,0.279471 -0.402438,0.707993 -0.141598,0.424795 -0.141598,0.983736 0,0.585025 0.156503,1.006094 0.16023,0.421069 0.40989,0.685635 0.260839,0.275744 0.607383,0.40989 0.35027,0.130419 0.737802,0.130419 0.532858,0 0.998642,-0.182587 0.465784,-0.182587 0.871948,-0.547762 h 0.05217 z m 4.534876,-1.676823 q 0,1.017273 -0.521679,1.606024 -0.521678,0.588751 -1.397353,0.588751 -0.883127,0 -1.404805,-0.588751 -0.517952,-0.588751 -0.517952,-1.606024 0,-1.017273 0.517952,-1.606024 0.521678,-0.592478 1.404805,-0.592478 0.875675,0 1.397353,0.592478 0.521679,0.588751 0.521679,1.606024 z m -0.722897,0 q 0,-0.808602 -0.316734,-1.199861 -0.316733,-0.394985 -0.879401,-0.394985 -0.57012,0 -0.886853,0.394985 -0.313007,0.391259 -0.313007,1.199861 0,0.782517 0.316733,1.188681 0.316734,0.402438 0.883127,0.402438 0.558942,0 0.875675,-0.398711 0.32046,-0.402438 0.32046,-1.192408 z m 7.881071,2.079261 h -0.70054 v -2.369911 q 0,-0.268291 -0.02608,-0.517952 -0.02236,-0.24966 -0.100609,-0.398711 -0.0857,-0.16023 -0.245935,-0.242208 -0.160229,-0.08198 -0.462058,-0.08198 -0.294375,0 -0.588751,0.149051 -0.294376,0.145325 -0.588751,0.372627 0.01118,0.08571 0.01863,0.201219 0.0075,0.111788 0.0075,0.223577 v 2.664286 h -0.70054 v -2.369911 q 0,-0.275744 -0.02608,-0.521678 -0.02236,-0.24966 -0.100609,-0.398711 -0.08571,-0.16023 -0.245934,-0.238482 -0.16023,-0.08198 -0.462058,-0.08198 -0.286924,0 -0.577573,0.141598 -0.286923,0.141599 -0.573846,0.361449 v 3.107713 h -0.70054 v -4.162249 h 0.70054 v 0.462058 q 0.327912,-0.272018 0.652098,-0.424795 0.327912,-0.152777 0.696813,-0.152777 0.424795,0 0.719171,0.178861 0.298102,0.178861 0.443427,0.495595 0.424795,-0.357723 0.775065,-0.514226 0.35027,-0.16023 0.748981,-0.16023 0.685634,0 1.00982,0.417343 0.327913,0.413616 0.327913,1.158871 z m 5.011837,-2.131429 q 0,0.506773 -0.145325,0.927842 -0.145324,0.417343 -0.40989,0.707992 -0.245934,0.275745 -0.581299,0.428522 -0.331638,0.149051 -0.704266,0.149051 -0.324185,0 -0.588751,-0.0708 -0.260839,-0.0708 -0.532857,-0.21985 v 1.743896 h -0.70054 v -5.697474 h 0.70054 v 0.435974 q 0.27947,-0.234755 0.626014,-0.391258 0.35027,-0.16023 0.745255,-0.16023 0.752707,0 1.17005,0.57012 0.421069,0.566394 0.421069,1.576214 z m -0.722897,0.01863 q 0,-0.752707 -0.257113,-1.125335 -0.257113,-0.372627 -0.78997,-0.372627 -0.301829,0 -0.607383,0.13042 -0.305555,0.130419 -0.585025,0.342817 v 2.358732 q 0.298102,0.134145 0.510499,0.182587 0.216124,0.04844 0.488142,0.04844 0.585026,0 0.912938,-0.394985 0.327912,-0.394986 0.327912,-1.170051 z m 5.049102,2.112798 h -0.696813 v -0.443427 q -0.09316,0.06335 -0.253387,0.178861 -0.156504,0.111789 -0.305555,0.178862 -0.175134,0.0857 -0.402437,0.141598 -0.227303,0.05962 -0.532857,0.05962 -0.562668,0 -0.953927,-0.372627 -0.391259,-0.372627 -0.391259,-0.9502 0,-0.473237 0.201219,-0.763886 0.204945,-0.294376 0.581299,-0.462058 0.38008,-0.167683 0.912937,-0.227303 0.532858,-0.05962 1.143967,-0.08943 v -0.108062 q 0,-0.238481 -0.0857,-0.394985 -0.08198,-0.156503 -0.238481,-0.245934 -0.149051,-0.0857 -0.357723,-0.115514 -0.208671,-0.02981 -0.435974,-0.02981 -0.275744,0 -0.614835,0.07452 -0.339091,0.0708 -0.70054,0.208671 h -0.03726 v -0.711718 q 0.204945,-0.05589 0.592477,-0.122967 0.387533,-0.06707 0.763887,-0.06707 0.4397,0 0.763886,0.07453 0.327912,0.0708 0.566393,0.245935 0.234756,0.171408 0.357723,0.443426 0.122967,0.272018 0.122967,0.674456 z m -0.696813,-1.024726 v -1.158871 q -0.32046,0.01863 -0.756434,0.05589 -0.432248,0.03726 -0.685635,0.108062 -0.301828,0.0857 -0.488142,0.268292 -0.186313,0.178861 -0.186313,0.495594 0,0.357723 0.216124,0.54031 0.216124,0.178861 0.65955,0.178861 0.368901,0 0.674456,-0.141598 0.305554,-0.145325 0.566394,-0.346544 z m 4.642939,-2.373636 h -0.03726 q -0.156504,-0.03726 -0.305555,-0.05217 -0.145324,-0.01863 -0.346543,-0.01863 -0.324186,0 -0.626014,0.145325 -0.301828,0.141599 -0.581299,0.368901 v 2.954936 h -0.70054 v -4.162249 h 0.70054 v 0.614836 q 0.417343,-0.335365 0.734076,-0.473237 0.32046,-0.141599 0.652098,-0.141599 0.182588,0 0.264566,0.01118 0.08198,0.0075 0.245934,0.03354 z m 1.412259,-1.4607 H 47.12614 V 9.5064185 h 0.78997 z m -0.04472,4.859062 h -0.70054 v -4.162249 h 0.70054 z m 4.359741,-1.19986 q 0,0.57012 -0.473237,0.935294 -0.469511,0.365175 -1.285565,0.365175 -0.462058,0 -0.849591,-0.108062 -0.383806,-0.111788 -0.644645,-0.242207 V 14.0562 h 0.03726 q 0.331638,0.24966 0.737802,0.398711 0.406164,0.145325 0.778791,0.145325 0.462058,0 0.722898,-0.149051 0.260839,-0.149051 0.260839,-0.469511 0,-0.245934 -0.141599,-0.372627 -0.141598,-0.126694 -0.544036,-0.216124 -0.149051,-0.03354 -0.391258,-0.07825 -0.238482,-0.04472 -0.435975,-0.09688 -0.547762,-0.145325 -0.778791,-0.424795 -0.227303,-0.283197 -0.227303,-0.693087 0,-0.257113 0.104336,-0.484416 0.108062,-0.227303 0.324186,-0.406164 0.208671,-0.175135 0.529131,-0.275744 0.324186,-0.104336 0.722897,-0.104336 0.372628,0 0.752708,0.09316 0.383806,0.08943 0.637192,0.21985 v 0.748981 h -0.03726 q -0.268292,-0.197492 -0.652098,-0.331638 -0.383807,-0.137872 -0.752708,-0.137872 -0.383806,0 -0.648371,0.149051 -0.264566,0.145324 -0.264566,0.435974 0,0.257113 0.16023,0.387532 0.156503,0.13042 0.506773,0.212398 0.193766,0.04472 0.432248,0.08943 0.242208,0.04472 0.402438,0.08198 0.488142,0.111788 0.752707,0.383806 0.264566,0.275744 0.264566,0.73035 z m 4.549779,-0.879401 q 0,1.017273 -0.521679,1.606024 -0.521678,0.588751 -1.397352,0.588751 -0.883127,0 -1.404806,-0.588751 -0.517952,-0.588751 -0.517952,-1.606024 0,-1.017273 0.517952,-1.606024 0.521679,-0.592478 1.404806,-0.592478 0.875674,0 1.397352,0.592478 0.521679,0.588751 0.521679,1.606024 z m -0.722897,0 q 0,-0.808602 -0.316734,-1.199861 -0.316733,-0.394985 -0.8794,-0.394985 -0.57012,0 -0.886854,0.394985 -0.313007,0.391259 -0.313007,1.199861 0,0.782517 0.316734,1.188681 0.316733,0.402438 0.883127,0.402438 0.558941,0 0.875674,-0.398711 0.32046,-0.402438 0.32046,-1.192408 z m 5.287584,2.079261 h -0.70054 v -2.369911 q 0,-0.286923 -0.03354,-0.536583 -0.03354,-0.253387 -0.122968,-0.394985 -0.09316,-0.156504 -0.268291,-0.231029 -0.175135,-0.07825 -0.454606,-0.07825 -0.286923,0 -0.59993,0.141598 -0.313007,0.141599 -0.59993,0.361449 v 3.107713 h -0.70054 v -4.162249 h 0.70054 v 0.462058 q 0.327912,-0.272018 0.678182,-0.424795 0.35027,-0.152777 0.719171,-0.152777 0.674455,0 1.028452,0.406164 0.353996,0.406164 0.353996,1.17005 z m 7.579241,-2.079261 q 0,1.017273 -0.521678,1.606024 -0.521678,0.588751 -1.397353,0.588751 -0.883127,0 -1.404805,-0.588751 -0.517953,-0.588751 -0.517953,-1.606024 0,-1.017273 0.517953,-1.606024 0.521678,-0.592478 1.404805,-0.592478 0.875675,0 1.397353,0.592478 0.521678,0.588751 0.521678,1.606024 z m -0.722897,0 q 0,-0.808602 -0.316733,-1.199861 -0.316733,-0.394985 -0.879401,-0.394985 -0.57012,0 -0.886853,0.394985 -0.313007,0.391259 -0.313007,1.199861 0,0.782517 0.316733,1.188681 0.316733,0.402438 0.883127,0.402438 0.558941,0 0.875675,-0.398711 0.320459,-0.402438 0.320459,-1.192408 z m 4.046735,-3.0406402 h -0.03726 q -0.115515,-0.033536 -0.301828,-0.067073 -0.186314,-0.037263 -0.327912,-0.037263 -0.45088,0 -0.655825,0.2012189 -0.201219,0.197493 -0.201219,0.719171 v 0.141598 h 1.263208 v 0.588752 h -1.24085 v 3.573497 h -0.700539 v -3.573497 h -0.473237 v -0.588752 h 0.473237 v -0.137872 q 0,-0.741528 0.368901,-1.1365135 0.368901,-0.3987114 1.065714,-0.3987114 0.234755,0 0.421069,0.022358 0.19004,0.022358 0.346544,0.052168 z m 6.692391,5.1199012 H 75.430921 V 9.5436813 h 0.737802 V 14.43628 h 2.772349 z m 3.916316,0 h -0.696813 v -0.443427 q -0.09316,0.06335 -0.253387,0.178861 -0.156503,0.111789 -0.305554,0.178862 -0.175135,0.0857 -0.402438,0.141598 -0.227302,0.05962 -0.532857,0.05962 -0.562667,0 -0.953926,-0.372627 -0.391259,-0.372627 -0.391259,-0.9502 0,-0.473237 0.201219,-0.763886 0.204945,-0.294376 0.581299,-0.462058 0.38008,-0.167683 0.912937,-0.227303 0.532857,-0.05962 1.143966,-0.08943 v -0.108062 q 0,-0.238481 -0.0857,-0.394985 -0.08198,-0.156503 -0.238482,-0.245934 -0.149051,-0.0857 -0.357722,-0.115514 -0.208671,-0.02981 -0.435974,-0.02981 -0.275745,0 -0.614836,0.07452 -0.33909,0.0708 -0.700539,0.208671 h -0.03726 v -0.711718 q 0.204945,-0.05589 0.592478,-0.122967 0.387532,-0.06707 0.763886,-0.06707 0.4397,0 0.763886,0.07453 0.327912,0.0708 0.566394,0.245935 0.234755,0.171408 0.357722,0.443426 0.122967,0.272018 0.122967,0.674456 z m -0.696813,-1.024726 v -1.158871 q -0.320459,0.01863 -0.756434,0.05589 -0.432247,0.03726 -0.685634,0.108062 -0.301828,0.0857 -0.488142,0.268292 -0.186314,0.178861 -0.186314,0.495594 0,0.357723 0.216124,0.54031 0.216124,0.178861 0.659551,0.178861 0.368901,0 0.674455,-0.141598 0.305555,-0.145325 0.566394,-0.346544 z m 5.708648,-1.088072 q 0,0.521679 -0.149051,0.939021 -0.145325,0.417343 -0.394985,0.70054 -0.264566,0.294376 -0.581299,0.443427 -0.316733,0.145324 -0.696813,0.145324 -0.353996,0 -0.618562,-0.0857 -0.264565,-0.08198 -0.521678,-0.223576 l -0.04472,0.193766 H 84.206295 V 9.2940209 h 0.70054 v 2.0718081 q 0.294375,-0.242207 0.626014,-0.394985 0.331638,-0.156503 0.745255,-0.156503 0.737802,0 1.162597,0.566394 0.428522,0.566393 0.428522,1.598571 z m -0.722897,0.01863 q 0,-0.745255 -0.245934,-1.129061 -0.245934,-0.387533 -0.793697,-0.387533 -0.305554,0 -0.618561,0.134146 -0.313007,0.130419 -0.581299,0.339091 v 2.384816 q 0.298102,0.134145 0.510499,0.186313 0.216124,0.05217 0.488142,0.05217 0.581299,0 0.909211,-0.38008 0.331639,-0.383806 0.331639,-1.19986 z m 5.362113,0.01491 q 0,1.017273 -0.521679,1.606024 -0.521678,0.588751 -1.397353,0.588751 -0.883127,0 -1.404805,-0.588751 -0.517952,-0.588751 -0.517952,-1.606024 0,-1.017273 0.517952,-1.606024 0.521678,-0.592478 1.404805,-0.592478 0.875675,0 1.397353,0.592478 0.521679,0.588751 0.521679,1.606024 z m -0.722898,0 q 0,-0.808602 -0.316733,-1.199861 -0.316733,-0.394985 -0.879401,-0.394985 -0.57012,0 -0.886853,0.394985 -0.313007,0.391259 -0.313007,1.199861 0,0.782517 0.316733,1.188681 0.316734,0.402438 0.883127,0.402438 0.558942,0 0.875675,-0.398711 0.320459,-0.402438 0.320459,-1.192408 z m 5.257774,2.079261 h -0.700539 v -0.462058 q -0.353996,0.279471 -0.678182,0.428521 -0.324186,0.149051 -0.715445,0.149051 -0.655824,0 -1.020999,-0.398711 -0.365175,-0.402438 -0.365175,-1.177503 v -2.701549 h 0.700539 v 2.369911 q 0,0.316733 0.02981,0.544036 0.02981,0.223576 0.126693,0.383806 0.100609,0.163956 0.260839,0.238482 0.16023,0.07453 0.465785,0.07453 0.272018,0 0.592477,-0.141598 0.324186,-0.141599 0.603657,-0.361449 v -3.107713 h 0.700539 z m 3.975925,-3.398362 h -0.0373 q -0.1565,-0.03726 -0.30555,-0.05217 -0.14533,-0.01863 -0.34655,-0.01863 -0.32418,0 -0.62601,0.145325 -0.301828,0.141599 -0.581299,0.368901 v 2.954936 h -0.700539 v -4.162249 h 0.700539 v 0.614836 q 0.417343,-0.335365 0.734076,-0.473237 0.320463,-0.141599 0.652103,-0.141599 0.18258,0 0.26456,0.01118 0.082,0.0075 0.24593,0.03354 z m 6.94205,-1.494236 h -2.80588 v 1.565035 h 2.4109 v 0.655824 h -2.4109 v 2.671739 h -0.7378 V 9.5436813 h 3.54368 z m 4.14735,2.813337 q 0,1.017273 -0.52168,1.606024 -0.52167,0.588751 -1.39735,0.588751 -0.88313,0 -1.4048,-0.588751 -0.51796,-0.588751 -0.51796,-1.606024 0,-1.017273 0.51796,-1.606024 0.52167,-0.592478 1.4048,-0.592478 0.87568,0 1.39735,0.592478 0.52168,0.588751 0.52168,1.606024 z m -0.72289,0 q 0,-0.808602 -0.31674,-1.199861 -0.31673,-0.394985 -0.8794,-0.394985 -0.57012,0 -0.88685,0.394985 -0.31301,0.391259 -0.31301,1.199861 0,0.782517 0.31673,1.188681 0.31674,0.402438 0.88313,0.402438 0.55894,0 0.87568,-0.398711 0.32046,-0.402438 0.32046,-1.192408 z m 4.40445,-1.319101 h -0.0373 q -0.1565,-0.03726 -0.30555,-0.05217 -0.14533,-0.01863 -0.34655,-0.01863 -0.32418,0 -0.62601,0.145325 -0.30183,0.141599 -0.5813,0.368901 v 2.954936 h -0.70054 v -4.162249 h 0.70054 v 0.614836 q 0.41734,-0.335365 0.73408,-0.473237 0.32045,-0.141599 0.65209,-0.141599 0.18259,0 0.26457,0.01118 0.082,0.0075 0.24593,0.03354 z m 3.73745,3.137523 q -0.35027,0.167682 -0.667,0.260839 -0.31301,0.09316 -0.667,0.09316 -0.45088,0 -0.82724,-0.13042 -0.37635,-0.134146 -0.64464,-0.402437 -0.27202,-0.268292 -0.42107,-0.678182 -0.14905,-0.409891 -0.14905,-0.957653 0,-1.020999 0.55894,-1.602298 0.56267,-0.581299 1.48306,-0.581299 0.35772,0 0.70054,0.10061 0.34654,0.100609 0.63346,0.245934 v 0.778791 h -0.0373 q -0.32046,-0.24966 -0.66328,-0.383806 -0.33909,-0.134146 -0.66327,-0.134146 -0.59621,0 -0.94275,0.402438 -0.34282,0.398711 -0.34282,1.173776 0,0.752708 0.33537,1.158871 0.33909,0.402438 0.9502,0.402438 0.21239,0 0.43224,-0.05589 0.21985,-0.05589 0.39499,-0.145325 0.15278,-0.07825 0.28692,-0.163956 0.13415,-0.08943 0.2124,-0.152777 h 0.0373 z m 4.3821,-1.747623 h -3.06672 q 0,0.383806 0.11551,0.670729 0.11552,0.283197 0.31674,0.465785 0.19376,0.178861 0.45833,0.268291 0.26829,0.08943 0.58875,0.08943 0.4248,0 0.85332,-0.167682 0.43224,-0.171409 0.61483,-0.335365 h 0.0373 v 0.763886 q -0.35399,0.149051 -0.72289,0.249661 -0.3689,0.100609 -0.77507,0.100609 -1.0359,0 -1.6172,-0.558941 -0.5813,-0.562668 -0.5813,-1.594846 0,-1.020999 0.55522,-1.620929 0.55894,-0.59993 1.46815,-0.59993 0.84214,0 1.29674,0.491868 0.45833,0.491868 0.45833,1.397353 z m -0.68191,-0.536584 q -0.004,-0.551488 -0.27947,-0.853316 -0.27201,-0.301829 -0.83096,-0.301829 -0.56266,0 -0.89803,0.331639 -0.33164,0.331638 -0.37635,0.823506 z m 8.1121,-1.326553 q 0,0.368901 -0.13041,0.685634 -0.1267,0.313007 -0.35773,0.544036 -0.28692,0.286923 -0.67818,0.432248 -0.39126,0.141599 -0.98746,0.141599 h -0.7378 v 2.068082 h -0.73781 V 9.5436813 h 1.50542 q 0.49932,0 0.84586,0.085704 0.34655,0.081978 0.61484,0.2608392 0.31673,0.2123972 0.48814,0.5291312 0.17513,0.316733 0.17513,0.801149 z m -0.76761,0.01863 q 0,-0.286923 -0.10061,-0.499321 -0.10061,-0.212397 -0.30555,-0.346543 -0.17886,-0.115515 -0.40989,-0.163956 -0.2273,-0.05217 -0.57757,-0.05217 h -0.73035 v 2.217133 h 0.62228 q 0.44716,0 0.72663,-0.07825 0.27947,-0.08198 0.4546,-0.257112 0.17514,-0.178862 0.24594,-0.376354 0.0745,-0.197493 0.0745,-0.443427 z m 4.73237,3.852968 h -0.69681 v -0.443427 q -0.0932,0.06335 -0.25339,0.178861 -0.1565,0.111789 -0.30555,0.178862 -0.17514,0.0857 -0.40244,0.141598 -0.22731,0.05962 -0.53286,0.05962 -0.56267,0 -0.95393,-0.372627 -0.39125,-0.372627 -0.39125,-0.9502 0,-0.473237 0.20121,-0.763886 0.20495,-0.294376 0.5813,-0.462058 0.38008,-0.167683 0.91294,-0.227303 0.53286,-0.05962 1.14397,-0.08943 v -0.108062 q 0,-0.238481 -0.0857,-0.394985 -0.082,-0.156503 -0.23848,-0.245934 -0.14905,-0.0857 -0.35772,-0.115514 -0.20867,-0.02981 -0.43598,-0.02981 -0.27574,0 -0.61483,0.07452 -0.33909,0.0708 -0.70054,0.208671 h -0.0373 v -0.711718 q 0.20494,-0.05589 0.59247,-0.122967 0.38754,-0.06707 0.76389,-0.06707 0.4397,0 0.76389,0.07453 0.32791,0.0708 0.56639,0.245935 0.23476,0.171408 0.35772,0.443426 0.12297,0.272018 0.12297,0.674456 z m -0.69681,-1.024726 v -1.158871 q -0.32046,0.01863 -0.75644,0.05589 -0.43225,0.03726 -0.68563,0.108062 -0.30183,0.0857 -0.48814,0.268292 -0.18632,0.178861 -0.18632,0.495594 0,0.357723 0.21613,0.54031 0.21612,0.178861 0.65955,0.178861 0.3689,0 0.67445,-0.141598 0.30556,-0.145325 0.5664,-0.346544 z m 4.64293,-2.373636 h -0.0373 q -0.15651,-0.03726 -0.30556,-0.05217 -0.14532,-0.01863 -0.34654,-0.01863 -0.32419,0 -0.62601,0.145325 -0.30183,0.141599 -0.5813,0.368901 v 2.954936 h -0.70054 v -4.162249 h 0.70054 v 0.614836 q 0.41734,-0.335365 0.73407,-0.473237 0.32046,-0.141599 0.6521,-0.141599 0.18259,0 0.26457,0.01118 0.082,0.0075 0.24593,0.03354 z m 2.82079,3.361099 q -0.19749,0.05217 -0.43224,0.08571 -0.23103,0.03354 -0.41362,0.03354 -0.63719,0 -0.96883,-0.342817 -0.33164,-0.342818 -0.33164,-1.099251 v -2.213407 h -0.47324 v -0.588752 h 0.47324 V 9.7337213 h 0.70054 v 1.1961337 h 1.44579 v 0.588752 h -1.44579 v 1.896673 q 0,0.327913 0.0149,0.514226 0.0149,0.182588 0.10434,0.342818 0.082,0.149051 0.22358,0.21985 0.14532,0.06707 0.4397,0.06707 0.1714,0 0.35772,-0.04844 0.18631,-0.05217 0.26829,-0.0857 h 0.0373 z m 1.59857,-4.821799 h -0.78997 V 9.5064185 h 0.78997 z m -0.0447,4.859062 h -0.70054 v -4.162249 h 0.70054 z m 4.46407,-0.260839 q -0.35027,0.167682 -0.667,0.260839 -0.31301,0.09316 -0.667,0.09316 -0.45088,0 -0.82724,-0.13042 -0.37635,-0.134146 -0.64464,-0.402437 -0.27202,-0.268292 -0.42107,-0.678182 -0.14905,-0.409891 -0.14905,-0.957653 0,-1.020999 0.55894,-1.602298 0.56267,-0.581299 1.48306,-0.581299 0.35772,0 0.70053,0.10061 0.34655,0.100609 0.63347,0.245934 v 0.778791 h -0.0373 q -0.32046,-0.24966 -0.66328,-0.383806 -0.33909,-0.134146 -0.66327,-0.134146 -0.59621,0 -0.94275,0.402438 -0.34282,0.398711 -0.34282,1.173776 0,0.752708 0.33537,1.158871 0.33909,0.402438 0.9502,0.402438 0.21239,0 0.43224,-0.05589 0.21985,-0.05589 0.39499,-0.145325 0.15278,-0.07825 0.28692,-0.163956 0.13415,-0.08943 0.2124,-0.152777 h 0.0373 z m 1.65074,-4.598223 h -0.78997 V 9.5064185 h 0.78997 z m -0.0447,4.859062 h -0.70054 v -4.162249 h 0.70054 z m 5.0491,-2.131429 q 0,0.506773 -0.14533,0.927842 -0.14532,0.417343 -0.40989,0.707992 -0.24593,0.275745 -0.5813,0.428522 -0.33164,0.149051 -0.70426,0.149051 -0.32419,0 -0.58876,-0.0708 -0.26083,-0.0708 -0.53285,-0.21985 v 1.743896 h -0.70054 v -5.697474 h 0.70054 v 0.435974 q 0.27947,-0.234755 0.62601,-0.391258 0.35027,-0.16023 0.74526,-0.16023 0.7527,0 1.17005,0.57012 0.42107,0.566394 0.42107,1.576214 z m -0.7229,0.01863 q 0,-0.752707 -0.25711,-1.125335 -0.25712,-0.372627 -0.78997,-0.372627 -0.30183,0 -0.60739,0.13042 -0.30555,0.130419 -0.58502,0.342817 v 2.358732 q 0.2981,0.134145 0.5105,0.182587 0.21612,0.04844 0.48814,0.04844 0.58502,0 0.91294,-0.394985 0.32791,-0.394986 0.32791,-1.170051 z m 5.0491,2.112798 h -0.69681 v -0.443427 q -0.0932,0.06335 -0.25339,0.178861 -0.1565,0.111789 -0.30555,0.178862 -0.17514,0.0857 -0.40244,0.141598 -0.2273,0.05962 -0.53286,0.05962 -0.56266,0 -0.95392,-0.372627 -0.39126,-0.372627 -0.39126,-0.9502 0,-0.473237 0.20122,-0.763886 0.20494,-0.294376 0.5813,-0.462058 0.38008,-0.167683 0.91293,-0.227303 0.53286,-0.05962 1.14397,-0.08943 v -0.108062 q 0,-0.238481 -0.0857,-0.394985 -0.082,-0.156503 -0.23849,-0.245934 -0.14905,-0.0857 -0.35772,-0.115514 -0.20867,-0.02981 -0.43597,-0.02981 -0.27575,0 -0.61484,0.07452 -0.33909,0.0708 -0.70054,0.208671 h -0.0373 v -0.711718 q 0.20495,-0.05589 0.59248,-0.122967 0.38753,-0.06707 0.76388,-0.06707 0.43971,0 0.76389,0.07453 0.32791,0.0708 0.56639,0.245935 0.23476,0.171408 0.35773,0.443426 0.12296,0.272018 0.12296,0.674456 z m -0.69681,-1.024726 v -1.158871 q -0.32046,0.01863 -0.75643,0.05589 -0.43225,0.03726 -0.68564,0.108062 -0.30183,0.0857 -0.48814,0.268292 -0.18631,0.178861 -0.18631,0.495594 0,0.357723 0.21612,0.54031 0.21612,0.178861 0.65955,0.178861 0.3689,0 0.67446,-0.141598 0.30555,-0.145325 0.56639,-0.346544 z m 4.20698,0.987463 q -0.1975,0.05217 -0.43225,0.08571 -0.23103,0.03354 -0.41362,0.03354 -0.63719,0 -0.96883,-0.342817 -0.33164,-0.342818 -0.33164,-1.099251 v -2.213407 h -0.47324 v -0.588752 h 0.47324 V 9.7337213 h 0.70054 v 1.1961337 h 1.4458 v 0.588752 h -1.4458 v 1.896673 q 0,0.327913 0.0149,0.514226 0.0149,0.182588 0.10433,0.342818 0.082,0.149051 0.22358,0.21985 0.14532,0.06707 0.4397,0.06707 0.17141,0 0.35772,-0.04844 0.18631,-0.05217 0.26829,-0.0857 h 0.0373 z m 1.59856,-4.821799 h -0.78997 V 9.5064185 h 0.78997 z m -0.0447,4.859062 h -0.70054 v -4.162249 h 0.70054 z m 4.93359,-2.079261 q 0,1.017273 -0.52168,1.606024 -0.52168,0.588751 -1.39735,0.588751 -0.88313,0 -1.40481,-0.588751 -0.51795,-0.588751 -0.51795,-1.606024 0,-1.017273 0.51795,-1.606024 0.52168,-0.592478 1.40481,-0.592478 0.87567,0 1.39735,0.592478 0.52168,0.588751 0.52168,1.606024 z m -0.7229,0 q 0,-0.808602 -0.31673,-1.199861 -0.31674,-0.394985 -0.8794,-0.394985 -0.57012,0 -0.88686,0.394985 -0.313,0.391259 -0.313,1.199861 0,0.782517 0.31673,1.188681 0.31673,0.402438 0.88313,0.402438 0.55894,0 0.87567,-0.398711 0.32046,-0.402438 0.32046,-1.192408 z m 5.28758,2.079261 h -0.70054 v -2.369911 q 0,-0.286923 -0.0335,-0.536583 -0.0335,-0.253387 -0.12297,-0.394985 -0.0932,-0.156504 -0.26829,-0.231029 -0.17514,-0.07825 -0.45461,-0.07825 -0.28692,0 -0.59993,0.141598 -0.313,0.141599 -0.59993,0.361449 v 3.107713 h -0.70054 v -4.162249 h 0.70054 v 0.462058 q 0.32791,-0.272018 0.67818,-0.424795 0.35027,-0.152777 0.71918,-0.152777 0.67445,0 1.02845,0.406164 0.35399,0.406164 0.35399,1.17005 z m 8.6785,0 H 181.354 l -1.85568,-2.205955 h -1.03963 v 2.205955 h -0.73781 V 9.5436813 h 1.55386 q 0.50305,0 0.83841,0.067073 0.33537,0.063347 0.60366,0.231029 0.30183,0.1900398 0.46951,0.4806898 0.17141,0.286923 0.17141,0.730349 0,0.599931 -0.30183,1.006095 -0.30183,0.402437 -0.83096,0.607382 z m -1.72526,-3.987114 q 0,-0.238481 -0.0857,-0.421069 -0.082,-0.186313 -0.27574,-0.313007 -0.16023,-0.108062 -0.38008,-0.149051 -0.21985,-0.04472 -0.51795,-0.04472 h -0.86822 v 2.094166 h 0.74525 q 0.35027,0 0.61111,-0.05962 0.26084,-0.06335 0.44343,-0.231029 0.16768,-0.156504 0.24593,-0.357723 0.082,-0.204945 0.082,-0.517952 z m 5.47017,3.987114 h -0.69681 v -0.443427 q -0.0932,0.06335 -0.25339,0.178861 -0.1565,0.111789 -0.30555,0.178862 -0.17514,0.0857 -0.40244,0.141598 -0.2273,0.05962 -0.53286,0.05962 -0.56267,0 -0.95392,-0.372627 -0.39126,-0.372627 -0.39126,-0.9502 0,-0.473237 0.20122,-0.763886 0.20494,-0.294376 0.58129,-0.462058 0.38008,-0.167683 0.91294,-0.227303 0.53286,-0.05962 1.14397,-0.08943 v -0.108062 q 0,-0.238481 -0.0857,-0.394985 -0.082,-0.156503 -0.23848,-0.245934 -0.14905,-0.0857 -0.35772,-0.115514 -0.20867,-0.02981 -0.43597,-0.02981 -0.27575,0 -0.61484,0.07452 -0.33909,0.0708 -0.70054,0.208671 h -0.0373 v -0.711718 q 0.20494,-0.05589 0.59248,-0.122967 0.38753,-0.06707 0.76388,-0.06707 0.4397,0 0.76389,0.07453 0.32791,0.0708 0.56639,0.245935 0.23476,0.171408 0.35772,0.443426 0.12297,0.272018 0.12297,0.674456 z m -0.69681,-1.024726 v -1.158871 q -0.32046,0.01863 -0.75644,0.05589 -0.43224,0.03726 -0.68563,0.108062 -0.30183,0.0857 -0.48814,0.268292 -0.18632,0.178861 -0.18632,0.495594 0,0.357723 0.21613,0.54031 0.21612,0.178861 0.65955,0.178861 0.3689,0 0.67445,-0.141598 0.30556,-0.145325 0.5664,-0.346544 z m 4.20696,0.987463 q -0.1975,0.05217 -0.43225,0.08571 -0.23103,0.03354 -0.41362,0.03354 -0.63719,0 -0.96883,-0.342817 -0.33164,-0.342818 -0.33164,-1.099251 v -2.213407 h -0.47323 v -0.588752 h 0.47323 V 9.7337213 h 0.70054 v 1.1961337 h 1.4458 v 0.588752 h -1.4458 v 1.896673 q 0,0.327913 0.0149,0.514226 0.0149,0.182588 0.10433,0.342818 0.082,0.149051 0.22358,0.21985 0.14532,0.06707 0.4397,0.06707 0.17141,0 0.35772,-0.04844 0.18632,-0.05217 0.26829,-0.0857 h 0.0373 z m 4.32994,-1.971199 h -3.06673 q 0,0.383806 0.11552,0.670729 0.11551,0.283197 0.31673,0.465785 0.19377,0.178861 0.45833,0.268291 0.26829,0.08943 0.58875,0.08943 0.4248,0 0.85332,-0.167682 0.43225,-0.171409 0.61483,-0.335365 h 0.0373 v 0.763886 q -0.354,0.149051 -0.7229,0.249661 -0.3689,0.100609 -0.77506,0.100609 -1.03591,0 -1.61721,-0.558941 -0.5813,-0.562668 -0.5813,-1.594846 0,-1.020999 0.55522,-1.620929 0.55894,-0.59993 1.46815,-0.59993 0.84214,0 1.29674,0.491868 0.45834,0.491868 0.45834,1.397353 z m -0.68191,-0.536584 q -0.004,-0.551488 -0.27947,-0.853316 -0.27202,-0.301829 -0.83096,-0.301829 -0.56267,0 -0.89803,0.331639 -0.33164,0.331638 -0.37636,0.823506 z m 4.71746,1.345186 q 0,0.57012 -0.47324,0.935294 -0.46951,0.365175 -1.28556,0.365175 -0.46206,0 -0.8496,-0.108062 -0.3838,-0.111788 -0.64464,-0.242207 V 14.0562 h 0.0373 q 0.33164,0.24966 0.7378,0.398711 0.40617,0.145325 0.7788,0.145325 0.46205,0 0.72289,-0.149051 0.26084,-0.149051 0.26084,-0.469511 0,-0.245934 -0.1416,-0.372627 -0.14159,-0.126694 -0.54403,-0.216124 -0.14905,-0.03354 -0.39126,-0.07825 -0.23848,-0.04472 -0.43598,-0.09688 -0.54776,-0.145325 -0.77879,-0.424795 -0.2273,-0.283197 -0.2273,-0.693087 0,-0.257113 0.10434,-0.484416 0.10806,-0.227303 0.32418,-0.406164 0.20867,-0.175135 0.52913,-0.275744 0.32419,-0.104336 0.7229,-0.104336 0.37263,0 0.75271,0.09316 0.3838,0.08943 0.63719,0.21985 v 0.748981 h -0.0373 q -0.26829,-0.197492 -0.6521,-0.331638 -0.38381,-0.137872 -0.75271,-0.137872 -0.3838,0 -0.64837,0.149051 -0.26456,0.145324 -0.26456,0.435974 0,0.257113 0.16023,0.387532 0.1565,0.13042 0.50677,0.212398 0.19376,0.04472 0.43225,0.08943 0.2422,0.04472 0.40243,0.08198 0.48815,0.111788 0.75271,0.383806 0.26457,0.275744 0.26457,0.73035 z m 2.49288,-1.9004 h -0.89058 v -1.061989 h 0.89058 z m 0,3.10026 h -0.89058 v -1.061988 h 0.89058 z"
         id="path28" />
      <path
         style="fill:#000000;stroke-width:2.41665"
         d="m 39.220847,23.547766 q 0,0.603656 -0.134146,1.054535 -0.130419,0.447153 -0.432247,0.745255 -0.286924,0.283197 -0.67073,0.413617 -0.383806,0.130419 -0.894306,0.130419 -0.521678,0 -0.909211,-0.137872 -0.387532,-0.137872 -0.652098,-0.406164 -0.301828,-0.305554 -0.435974,-0.737802 -0.130419,-0.432248 -0.130419,-1.061988 v -3.320111 h 0.737802 v 3.357374 q 0,0.450879 0.05962,0.711718 0.06335,0.260839 0.208672,0.473237 0.163956,0.242208 0.443426,0.365175 0.283197,0.122967 0.678182,0.122967 0.398712,0 0.678182,-0.119241 0.279471,-0.122967 0.447153,-0.368901 0.145325,-0.212398 0.204945,-0.484416 0.06335,-0.275744 0.06335,-0.681908 v -3.376005 h 0.737802 z m 4.832978,2.228312 h -0.700539 v -2.369911 q 0,-0.286923 -0.03354,-0.536583 -0.03354,-0.253387 -0.122967,-0.394985 -0.09316,-0.156504 -0.268292,-0.231029 -0.175135,-0.07825 -0.454605,-0.07825 -0.286923,0 -0.59993,0.141598 -0.313007,0.141599 -0.599931,0.361449 v 3.107713 h -0.700539 v -4.162249 h 0.700539 v 0.462058 q 0.327913,-0.272018 0.678182,-0.424795 0.35027,-0.152777 0.719171,-0.152777 0.674456,0 1.028452,0.406164 0.353996,0.406164 0.353996,1.17005 z m 2.101619,-4.859062 h -0.78997 v -0.726623 h 0.78997 z m -0.04472,4.859062 h -0.70054 v -4.162249 h 0.70054 z m 3.547414,-0.03726 q -0.197493,0.05217 -0.432248,0.08571 -0.231029,0.03354 -0.413617,0.03354 -0.637193,0 -0.968831,-0.342817 -0.331639,-0.342818 -0.331639,-1.099251 v -2.213407 h -0.473236 v -0.588752 h 0.473236 v -1.196134 h 0.70054 v 1.196134 h 1.445795 v 0.588752 h -1.445795 v 1.896673 q 0,0.327913 0.0149,0.514226 0.01491,0.182588 0.104336,0.342818 0.08198,0.149051 0.223576,0.21985 0.145325,0.06707 0.439701,0.06707 0.171408,0 0.357722,-0.04844 0.186314,-0.05217 0.268292,-0.0857 h 0.03726 z m 4.32993,-1.971199 h -3.066724 q 0,0.383806 0.115515,0.670729 0.115514,0.283197 0.316733,0.465785 0.193766,0.178861 0.458332,0.268291 0.268291,0.08943 0.588751,0.08943 0.424795,0 0.853317,-0.167682 0.432248,-0.171409 0.614835,-0.335365 h 0.03726 v 0.763886 q -0.353996,0.149051 -0.722897,0.249661 -0.368902,0.100609 -0.775065,0.100609 -1.035905,0 -1.617204,-0.558941 -0.581298,-0.562668 -0.581298,-1.594846 0,-1.020999 0.555214,-1.620929 0.558942,-0.59993 1.468153,-0.59993 0.842138,0 1.296743,0.491868 0.458332,0.491868 0.458332,1.397353 z m -0.681908,-0.536584 q -0.0037,-0.551488 -0.279471,-0.853316 -0.272018,-0.301829 -0.830959,-0.301829 -0.562668,0 -0.898032,0.331639 -0.331639,0.331638 -0.376354,0.823506 z m 5.119901,2.545046 h -0.70054 v -0.435974 q -0.301828,0.260839 -0.62974,0.406164 -0.327912,0.145324 -0.711719,0.145324 -0.745255,0 -1.184955,-0.573846 -0.435974,-0.573846 -0.435974,-1.591119 0,-0.529131 0.149051,-0.942747 0.152777,-0.413617 0.40989,-0.704266 0.253387,-0.283197 0.588752,-0.432248 0.33909,-0.149051 0.700539,-0.149051 0.327912,0 0.581299,0.0708 0.253387,0.06707 0.532857,0.212398 v -1.803517 h 0.70054 z m -0.70054,-1.024726 v -2.388541 q -0.283197,-0.126694 -0.506773,-0.175135 -0.223577,-0.04844 -0.488142,-0.04844 -0.588751,0 -0.916664,0.40989 -0.327912,0.40989 -0.327912,1.162598 0,0.741529 0.253387,1.129061 0.253387,0.383806 0.812328,0.383806 0.298102,0 0.603656,-0.130419 0.305555,-0.134146 0.57012,-0.342818 z m 8.849901,-0.558941 q 0,0.324186 -0.152777,0.64092 -0.149051,0.316733 -0.421069,0.536583 -0.298102,0.238482 -0.696813,0.372627 -0.394985,0.134146 -0.953927,0.134146 -0.59993,0 -1.080619,-0.111788 -0.476963,-0.111788 -0.972558,-0.331638 v -0.924116 h 0.05217 q 0.421069,0.350269 0.972558,0.540309 0.551488,0.19004 1.035904,0.19004 0.685634,0 1.065714,-0.257113 0.383807,-0.257112 0.383807,-0.685634 0,-0.368901 -0.182588,-0.544036 -0.178861,-0.175135 -0.547762,-0.272018 -0.279471,-0.07453 -0.607383,-0.122967 -0.324186,-0.04844 -0.689361,-0.122967 -0.737802,-0.156504 -1.095524,-0.532857 -0.353996,-0.38008 -0.353996,-0.987463 0,-0.696814 0.588751,-1.14024 0.588751,-0.447153 1.494236,-0.447153 0.585025,0 1.073167,0.111788 0.488142,0.111788 0.864496,0.275744 v 0.871949 h -0.05217 Q 65.98295,21.118235 65.464997,20.9431 q -0.514225,-0.178861 -1.054535,-0.178861 -0.592478,0 -0.953926,0.245934 -0.357723,0.245934 -0.357723,0.633467 0,0.346543 0.178861,0.544036 0.178862,0.197492 0.629741,0.301828 0.238481,0.05217 0.678182,0.126693 0.4397,0.07453 0.745255,0.152777 0.618561,0.163957 0.931568,0.495595 0.313007,0.331638 0.313007,0.927842 z m 3.290302,1.546404 q -0.197493,0.05217 -0.432248,0.08571 -0.231029,0.03354 -0.413617,0.03354 -0.637192,0 -0.968831,-0.342817 -0.331638,-0.342818 -0.331638,-1.099251 v -2.213407 h -0.473237 v -0.588752 h 0.473237 v -1.196134 h 0.700539 v 1.196134 h 1.445795 v 0.588752 h -1.445795 v 1.896673 q 0,0.327913 0.0149,0.514226 0.0149,0.182588 0.104336,0.342818 0.08198,0.149051 0.223577,0.21985 0.145324,0.06707 0.4397,0.06707 0.171409,0 0.357722,-0.04844 0.186314,-0.05217 0.268292,-0.0857 h 0.03726 z m 4.08027,0.03726 h -0.696814 v -0.443427 q -0.09316,0.06335 -0.253386,0.178861 -0.156504,0.111789 -0.305555,0.178862 -0.175135,0.0857 -0.402437,0.141598 -0.227303,0.05962 -0.532858,0.05962 -0.562667,0 -0.953926,-0.372627 -0.391259,-0.372627 -0.391259,-0.9502 0,-0.473237 0.201219,-0.763886 0.204945,-0.294376 0.581299,-0.462058 0.38008,-0.167683 0.912937,-0.227303 0.532857,-0.05962 1.143966,-0.08943 v -0.108062 q 0,-0.238481 -0.0857,-0.394985 -0.08198,-0.156503 -0.238481,-0.245934 -0.149051,-0.0857 -0.357723,-0.115514 -0.208671,-0.02981 -0.435974,-0.02981 -0.275744,0 -0.614835,0.07452 -0.339091,0.0708 -0.70054,0.208671 h -0.03726 V 21.70326 q 0.204945,-0.05589 0.592477,-0.122967 0.387533,-0.06707 0.763886,-0.06707 0.439701,0 0.763887,0.07453 0.327912,0.0708 0.566393,0.245935 0.234756,0.171408 0.357723,0.443426 0.122967,0.272018 0.122967,0.674456 z m -0.696814,-1.024726 v -1.158871 q -0.320459,0.01863 -0.756433,0.05589 -0.432248,0.03726 -0.685635,0.108062 -0.301828,0.0857 -0.488142,0.268292 -0.186313,0.178861 -0.186313,0.495594 0,0.357723 0.216123,0.54031 0.216124,0.178861 0.659551,0.178861 0.368901,0 0.674456,-0.141598 0.305554,-0.145325 0.566393,-0.346544 z m 4.206964,0.987463 q -0.197493,0.05217 -0.432248,0.08571 -0.231029,0.03354 -0.413617,0.03354 -0.637193,0 -0.968831,-0.342817 -0.331639,-0.342818 -0.331639,-1.099251 v -2.213407 h -0.473236 v -0.588752 h 0.473236 v -1.196134 h 0.70054 v 1.196134 h 1.445795 v 0.588752 h -1.445795 v 1.896673 q 0,0.327913 0.0149,0.514226 0.0149,0.182588 0.104336,0.342818 0.08198,0.149051 0.223576,0.21985 0.145325,0.06707 0.439701,0.06707 0.171408,0 0.357722,-0.04844 0.186314,-0.05217 0.268292,-0.0857 h 0.03726 z m 4.329934,-1.971199 h -3.066724 q 0,0.383806 0.115514,0.670729 0.115515,0.283197 0.316734,0.465785 0.193766,0.178861 0.458331,0.268291 0.268292,0.08943 0.588752,0.08943 0.424795,0 0.853317,-0.167682 0.432248,-0.171409 0.614835,-0.335365 h 0.03726 v 0.763886 q -0.353996,0.149051 -0.722898,0.249661 -0.368901,0.100609 -0.775065,0.100609 -1.035904,0 -1.617203,-0.558941 -0.581299,-0.562668 -0.581299,-1.594846 0,-1.020999 0.555215,-1.620929 0.558942,-0.59993 1.468153,-0.59993 0.842138,0 1.296743,0.491868 0.458332,0.491868 0.458332,1.397353 z m -0.681908,-0.536584 q -0.0037,-0.551488 -0.279471,-0.853316 -0.272018,-0.301829 -0.830959,-0.301829 -0.562668,0 -0.898032,0.331639 -0.331639,0.331638 -0.376354,0.823506 z m 4.717459,1.345186 q 0,0.57012 -0.473237,0.935294 -0.46951,0.365175 -1.285564,0.365175 -0.462058,0 -0.849591,-0.108062 -0.383806,-0.111788 -0.644645,-0.242207 v -0.786244 h 0.03726 q 0.331639,0.24966 0.737803,0.398711 0.406164,0.145325 0.778791,0.145325 0.462058,0 0.722897,-0.149051 0.26084,-0.149051 0.26084,-0.469511 0,-0.245934 -0.141599,-0.372627 -0.141598,-0.126694 -0.544036,-0.216124 -0.149051,-0.03354 -0.391259,-0.07825 -0.238481,-0.04472 -0.435974,-0.09688 -0.547762,-0.145325 -0.778791,-0.424795 -0.227303,-0.283197 -0.227303,-0.693087 0,-0.257113 0.104336,-0.484416 0.108062,-0.227303 0.324186,-0.406164 0.208671,-0.175135 0.52913,-0.275744 0.324186,-0.104336 0.722898,-0.104336 0.372627,0 0.752707,0.09316 0.383806,0.08943 0.637193,0.21985 v 0.748981 h -0.03726 q -0.268291,-0.197492 -0.652098,-0.331638 -0.383806,-0.137872 -0.752707,-0.137872 -0.383806,0 -0.648372,0.149051 -0.264565,0.145324 -0.264565,0.435974 0,0.257113 0.160229,0.387532 0.156504,0.13042 0.506774,0.212398 0.193766,0.04472 0.432248,0.08943 0.242207,0.04472 0.402437,0.08198 0.488142,0.111789 0.752708,0.383807 0.264565,0.275744 0.264565,0.73035 z m 7.232702,-0.879401 q 0,1.017273 -0.521679,1.606024 -0.521678,0.588751 -1.397352,0.588751 -0.883127,0 -1.404806,-0.588751 -0.517952,-0.588751 -0.517952,-1.606024 0,-1.017273 0.517952,-1.606025 0.521679,-0.592477 1.404806,-0.592477 0.875674,0 1.397352,0.592477 0.521679,0.588752 0.521679,1.606025 z m -0.722897,0 q 0,-0.808602 -0.316734,-1.199861 -0.316733,-0.394985 -0.8794,-0.394985 -0.57012,0 -0.886854,0.394985 -0.313007,0.391259 -0.313007,1.199861 0,0.782517 0.316734,1.188681 0.316733,0.402438 0.883127,0.402438 0.558941,0 0.875674,-0.398711 0.32046,-0.402438 0.32046,-1.192408 z m 4.046734,-3.04064 h -0.03726 q -0.115514,-0.03354 -0.301828,-0.06707 -0.186313,-0.03726 -0.327912,-0.03726 -0.450879,0 -0.655824,0.201219 -0.201219,0.197493 -0.201219,0.719171 v 0.141598 h 1.263207 v 0.588752 h -1.240849 v 3.573497 h -0.70054 v -3.573497 h -0.473237 v -0.588752 h 0.473237 v -0.137872 q 0,-0.741528 0.368901,-1.136514 0.368901,-0.398711 1.065715,-0.398711 0.234755,0 0.421069,0.02236 0.19004,0.02236 0.346543,0.05217 z m 7.556887,5.119901 h -0.78625 l -0.54403,-1.546404 h -2.39972 l -0.544041,1.546404 h -0.748981 l 2.019642,-5.548423 h 0.98374 z m -1.55759,-2.179871 -0.97255,-2.723906 -0.97629,2.723906 z m 8.41765,2.179871 h -0.70054 v -2.369911 q 0,-0.268291 -0.0261,-0.517952 -0.0224,-0.24966 -0.10061,-0.398711 -0.0857,-0.16023 -0.24593,-0.242208 -0.16023,-0.08198 -0.46206,-0.08198 -0.29438,0 -0.58875,0.149051 -0.29438,0.145325 -0.58875,0.372627 0.0112,0.08571 0.0186,0.201219 0.007,0.111788 0.007,0.223577 v 2.664286 h -0.70054 v -2.369911 q 0,-0.275744 -0.0261,-0.521678 -0.0224,-0.24966 -0.10061,-0.398711 -0.0857,-0.16023 -0.24594,-0.238482 -0.16023,-0.08198 -0.46205,-0.08198 -0.28693,0 -0.57758,0.141598 -0.28692,0.141599 -0.57384,0.361449 v 3.107713 h -0.70054 v -4.162249 h 0.70054 v 0.462058 q 0.32791,-0.272018 0.65209,-0.424795 0.32792,-0.152777 0.69682,-0.152777 0.42479,0 0.71917,0.178861 0.2981,0.178861 0.44343,0.495595 0.42479,-0.357723 0.77506,-0.514226 0.35027,-0.16023 0.74898,-0.16023 0.68564,0 1.00982,0.417343 0.32791,0.413616 0.32791,1.158871 z m 4.83299,-2.008462 h -3.06673 q 0,0.383806 0.11552,0.670729 0.11551,0.283197 0.31673,0.465785 0.19377,0.178861 0.45833,0.268291 0.2683,0.08943 0.58876,0.08943 0.42479,0 0.85331,-0.167682 0.43225,-0.171409 0.61484,-0.335365 h 0.0373 v 0.763886 q -0.354,0.149051 -0.7229,0.249661 -0.3689,0.100609 -0.77506,0.100609 -1.03591,0 -1.6172,-0.558941 -0.5813,-0.562668 -0.5813,-1.594846 0,-1.020999 0.55521,-1.620929 0.55894,-0.59993 1.46815,-0.59993 0.84214,0 1.29675,0.491868 0.45833,0.491868 0.45833,1.397353 z m -0.68191,-0.536584 q -0.004,-0.551488 -0.27947,-0.853316 -0.27202,-0.301829 -0.83096,-0.301829 -0.56267,0 -0.89803,0.331639 -0.33164,0.331638 -0.37636,0.823506 z m 4.34111,-0.853316 h -0.0373 q -0.1565,-0.03726 -0.30555,-0.05217 -0.14533,-0.01863 -0.34654,-0.01863 -0.32419,0 -0.62602,0.145325 -0.30183,0.141599 -0.5813,0.368901 v 2.954936 h -0.70054 v -4.162249 h 0.70054 v 0.614836 q 0.41735,-0.335365 0.73408,-0.473237 0.32046,-0.141599 0.6521,-0.141599 0.18258,0 0.26456,0.01118 0.082,0.0075 0.24594,0.03354 z m 1.41226,-1.4607 h -0.78997 v -0.726623 h 0.78997 z m -0.0447,4.859062 h -0.70054 v -4.162249 h 0.70054 z m 4.46407,-0.260839 q -0.35026,0.167682 -0.667,0.260839 -0.31301,0.09316 -0.667,0.09316 -0.45088,0 -0.82723,-0.13042 -0.37636,-0.134146 -0.64465,-0.402437 -0.27202,-0.268292 -0.42107,-0.678182 -0.14905,-0.409891 -0.14905,-0.957653 0,-1.020999 0.55894,-1.602298 0.56267,-0.581299 1.48306,-0.581299 0.35772,0 0.70054,0.10061 0.34654,0.100609 0.63346,0.245934 v 0.778791 h -0.0373 q -0.32046,-0.24966 -0.66327,-0.383806 -0.3391,-0.134146 -0.66328,-0.134146 -0.59621,0 -0.94275,0.402438 -0.34282,0.398711 -0.34282,1.173776 0,0.752708 0.33537,1.158871 0.33909,0.402438 0.9502,0.402438 0.2124,0 0.43225,-0.05589 0.21985,-0.05589 0.39498,-0.145325 0.15278,-0.07825 0.28692,-0.163956 0.13415,-0.08943 0.2124,-0.152777 h 0.0373 z m 4.13245,0.260839 h -0.69682 v -0.443427 q -0.0932,0.06335 -0.25338,0.178861 -0.15651,0.111789 -0.30556,0.178862 -0.17513,0.0857 -0.40244,0.141598 -0.2273,0.05962 -0.53285,0.05962 -0.56267,0 -0.95393,-0.372627 -0.39126,-0.372627 -0.39126,-0.9502 0,-0.473237 0.20122,-0.763886 0.20494,-0.294376 0.5813,-0.462058 0.38008,-0.167683 0.91294,-0.227303 0.53285,-0.05962 1.14396,-0.08943 v -0.108062 q 0,-0.238481 -0.0857,-0.394985 -0.082,-0.156503 -0.23848,-0.245934 -0.14905,-0.0857 -0.35773,-0.115514 -0.20867,-0.02981 -0.43597,-0.02981 -0.27574,0 -0.61484,0.07452 -0.33909,0.0708 -0.70054,0.208671 h -0.0373 V 21.70326 q 0.20495,-0.05589 0.59248,-0.122967 0.38753,-0.06707 0.76389,-0.06707 0.4397,0 0.76388,0.07453 0.32791,0.0708 0.5664,0.245935 0.23475,0.171408 0.35772,0.443426 0.12297,0.272018 0.12297,0.674456 z m -0.69682,-1.024726 v -1.158871 q -0.32046,0.01863 -0.75643,0.05589 -0.43225,0.03726 -0.68564,0.108062 -0.30182,0.0857 -0.48814,0.268292 -0.18631,0.178861 -0.18631,0.495594 0,0.357723 0.21612,0.54031 0.21613,0.178861 0.65955,0.178861 0.3689,0 0.67446,-0.141598 0.30555,-0.145325 0.56639,-0.346544 z m 8.32823,-3.137523 -1.68428,4.162249 h -0.70427 l -1.67309,-4.162249 h 0.76016 l 1.28929,3.312658 1.27811,-3.312658 z m 3.89022,2.962389 q 0,0.57012 -0.47323,0.935294 -0.46951,0.365175 -1.28557,0.365175 -0.46206,0 -0.84959,-0.108062 -0.3838,-0.111788 -0.64464,-0.242207 v -0.786244 h 0.0373 q 0.33164,0.24966 0.7378,0.398711 0.40617,0.145325 0.77879,0.145325 0.46206,0 0.7229,-0.149051 0.26084,-0.149051 0.26084,-0.469511 0,-0.245934 -0.1416,-0.372627 -0.1416,-0.126694 -0.54403,-0.216124 -0.14906,-0.03354 -0.39126,-0.07825 -0.23849,-0.04472 -0.43598,-0.09688 -0.54776,-0.145325 -0.77879,-0.424795 -0.2273,-0.283197 -0.2273,-0.693087 0,-0.257113 0.10433,-0.484416 0.10807,-0.227303 0.32419,-0.406164 0.20867,-0.175135 0.52913,-0.275744 0.32419,-0.104336 0.7229,-0.104336 0.37263,0 0.75271,0.09316 0.3838,0.08943 0.63719,0.21985 v 0.748981 h -0.0373 q -0.2683,-0.197492 -0.6521,-0.331638 -0.38381,-0.137872 -0.75271,-0.137872 -0.38381,0 -0.64837,0.149051 -0.26457,0.145324 -0.26457,0.435974 0,0.257113 0.16023,0.387532 0.15651,0.13042 0.50678,0.212398 0.19376,0.04472 0.43224,0.08943 0.24221,0.04472 0.40244,0.08198 0.48814,0.111789 0.75271,0.383807 0.26456,0.275744 0.26456,0.73035 z m 5.69748,1.19986 h -2.19105 v -0.566394 h 0.72662 v -4.415635 h -0.72662 v -0.566394 h 2.19105 v 0.566394 h -0.72663 v 4.415635 h 0.72663 z m 4.6802,0 h -0.70054 v -2.369911 q 0,-0.286923 -0.0335,-0.536583 -0.0335,-0.253387 -0.12296,-0.394985 -0.0932,-0.156504 -0.26829,-0.231029 -0.17514,-0.07825 -0.45461,-0.07825 -0.28692,0 -0.59993,0.141598 -0.31301,0.141599 -0.59993,0.361449 v 3.107713 h -0.70054 v -4.162249 h 0.70054 v 0.462058 q 0.32791,-0.272018 0.67818,-0.424795 0.35027,-0.152777 0.71917,-0.152777 0.67446,0 1.02845,0.406164 0.354,0.406164 0.354,1.17005 z m 4.72492,0 h -0.70054 v -0.435974 q -0.30183,0.260839 -0.62974,0.406164 -0.32791,0.145324 -0.71172,0.145324 -0.74525,0 -1.18495,-0.573846 -0.43598,-0.573846 -0.43598,-1.591119 0,-0.529131 0.14905,-0.942747 0.15278,-0.413617 0.40989,-0.704266 0.25339,-0.283197 0.58875,-0.432248 0.33909,-0.149051 0.70054,-0.149051 0.32792,0 0.5813,0.0708 0.25339,0.06707 0.53286,0.212398 v -1.803517 h 0.70054 z m -0.70054,-1.024726 v -2.388541 q -0.2832,-0.126694 -0.50677,-0.175135 -0.22358,-0.04844 -0.48815,-0.04844 -0.58875,0 -0.91666,0.40989 -0.32791,0.40989 -0.32791,1.162598 0,0.741529 0.25339,1.129061 0.25338,0.383806 0.81232,0.383806 0.29811,0 0.60366,-0.130419 0.30555,-0.134146 0.57012,-0.342818 z m 5.62667,-1.054535 q 0,1.017273 -0.52168,1.606024 -0.52168,0.588751 -1.39735,0.588751 -0.88313,0 -1.40481,-0.588751 -0.51795,-0.588751 -0.51795,-1.606024 0,-1.017273 0.51795,-1.606025 0.52168,-0.592477 1.40481,-0.592477 0.87567,0 1.39735,0.592477 0.52168,0.588752 0.52168,1.606025 z m -0.7229,0 q 0,-0.808602 -0.31673,-1.199861 -0.31673,-0.394985 -0.8794,-0.394985 -0.57012,0 -0.88685,0.394985 -0.31301,0.391259 -0.31301,1.199861 0,0.782517 0.31673,1.188681 0.31674,0.402438 0.88313,0.402438 0.55894,0 0.87567,-0.398711 0.32046,-0.402438 0.32046,-1.192408 z m 5.28759,2.079261 h -0.70054 v -2.369911 q 0,-0.286923 -0.0335,-0.536583 -0.0335,-0.253387 -0.12297,-0.394985 -0.0931,-0.156504 -0.26829,-0.231029 -0.17513,-0.07825 -0.4546,-0.07825 -0.28693,0 -0.59993,0.141598 -0.31301,0.141599 -0.59993,0.361449 v 3.107713 h -0.70054 v -4.162249 h 0.70054 v 0.462058 q 0.32791,-0.272018 0.67818,-0.424795 0.35027,-0.152777 0.71917,-0.152777 0.67446,0 1.02845,0.406164 0.354,0.406164 0.354,1.17005 z m 4.83297,-2.008462 h -3.06672 q 0,0.383806 0.11551,0.670729 0.11552,0.283197 0.31673,0.465785 0.19377,0.178861 0.45834,0.268291 0.26829,0.08943 0.58875,0.08943 0.42479,0 0.85331,-0.167682 0.43225,-0.171409 0.61484,-0.335365 h 0.0373 v 0.763886 q -0.35399,0.149051 -0.7229,0.249661 -0.3689,0.100609 -0.77506,0.100609 -1.0359,0 -1.6172,-0.558941 -0.5813,-0.562668 -0.5813,-1.594846 0,-1.020999 0.55521,-1.620929 0.55894,-0.59993 1.46815,-0.59993 0.84214,0 1.29675,0.491868 0.45833,0.491868 0.45833,1.397353 z m -0.68191,-0.536584 q -0.004,-0.551488 -0.27947,-0.853316 -0.27202,-0.301829 -0.83096,-0.301829 -0.56267,0 -0.89803,0.331639 -0.33164,0.331638 -0.37635,0.823506 z m 4.71748,1.345186 q 0,0.57012 -0.47324,0.935294 -0.46951,0.365175 -1.28556,0.365175 -0.46206,0 -0.8496,-0.108062 -0.3838,-0.111788 -0.64464,-0.242207 v -0.786244 h 0.0373 q 0.33164,0.24966 0.7378,0.398711 0.40617,0.145325 0.7788,0.145325 0.46205,0 0.72289,-0.149051 0.26084,-0.149051 0.26084,-0.469511 0,-0.245934 -0.1416,-0.372627 -0.14159,-0.126694 -0.54403,-0.216124 -0.14905,-0.03354 -0.39126,-0.07825 -0.23848,-0.04472 -0.43598,-0.09688 -0.54776,-0.145325 -0.77879,-0.424795 -0.2273,-0.283197 -0.2273,-0.693087 0,-0.257113 0.10434,-0.484416 0.10806,-0.227303 0.32418,-0.406164 0.20867,-0.175135 0.52913,-0.275744 0.32419,-0.104336 0.7229,-0.104336 0.37263,0 0.75271,0.09316 0.3838,0.08943 0.63719,0.21985 v 0.748981 h -0.0373 q -0.26829,-0.197492 -0.6521,-0.331638 -0.38381,-0.137872 -0.75271,-0.137872 -0.3838,0 -0.64837,0.149051 -0.26456,0.145324 -0.26456,0.435974 0,0.257113 0.16022,0.387532 0.15651,0.13042 0.50678,0.212398 0.19376,0.04472 0.43225,0.08943 0.2422,0.04472 0.40243,0.08198 0.48815,0.111789 0.75271,0.383807 0.26457,0.275744 0.26457,0.73035 z m 1.75507,-3.659202 h -0.78997 v -0.726623 h 0.78997 z m -0.0447,4.859062 h -0.70054 v -4.162249 h 0.70054 z m 4.62057,0 h -0.69681 v -0.443427 q -0.0932,0.06335 -0.25339,0.178861 -0.1565,0.111789 -0.30555,0.178862 -0.17513,0.0857 -0.40244,0.141598 -0.2273,0.05962 -0.53285,0.05962 -0.56267,0 -0.95393,-0.372627 -0.39126,-0.372627 -0.39126,-0.9502 0,-0.473237 0.20122,-0.763886 0.20494,-0.294376 0.5813,-0.462058 0.38008,-0.167683 0.91294,-0.227303 0.53285,-0.05962 1.14396,-0.08943 v -0.108062 q 0,-0.238481 -0.0857,-0.394985 -0.082,-0.156503 -0.23848,-0.245934 -0.14906,-0.0857 -0.35773,-0.115514 -0.20867,-0.02981 -0.43597,-0.02981 -0.27575,0 -0.61484,0.07452 -0.33909,0.0708 -0.70054,0.208671 h -0.0373 V 21.70326 q 0.20495,-0.05589 0.59248,-0.122967 0.38753,-0.06707 0.76389,-0.06707 0.4397,0 0.76388,0.07453 0.32791,0.0708 0.5664,0.245935 0.23475,0.171408 0.35772,0.443426 0.12296,0.272018 0.12296,0.674456 z m -0.69681,-1.024726 v -1.158871 q -0.32046,0.01863 -0.75643,0.05589 -0.43225,0.03726 -0.68564,0.108062 -0.30183,0.0857 -0.48814,0.268292 -0.18631,0.178861 -0.18631,0.495594 0,0.357723 0.21612,0.54031 0.21613,0.178861 0.65955,0.178861 0.3689,0 0.67446,-0.141598 0.30555,-0.145325 0.56639,-0.346544 z"
         id="path29" />
    </g>
    <text
       xml:space="preserve"
       transform="scale(0.26458333)"
       id="text5"
       style="font-size:21.3333px;line-height:1.4;text-align:center;white-space:pre;shape-inside:url(#rect5);display:inline;fill:#000000;fill-opacity:1;stroke-width:11.8224" />
    <path
       style="font-size:8.46667px;line-height:1.4;text-align:center;text-anchor:middle;stroke-width:3.128"
       d="m 24.734982,123.68689 q 0,0.83922 -0.367937,1.52135 -0.363802,0.68213 -0.971517,1.05834 -0.42168,0.26045 -0.942578,0.3762 -0.516765,0.11576 -1.364259,0.11576 h -1.554427 v -6.1557 h 1.537891 q 0.901237,0 1.430404,0.13229 0.533301,0.12816 0.901237,0.35553 0.628386,0.39274 0.979786,1.04594 0.3514,0.65319 0.3514,1.55029 z m -0.855762,-0.0124 q 0,-0.72347 -0.252181,-1.21957 -0.252182,-0.49609 -0.75241,-0.78135 -0.363802,-0.2067 -0.773079,-0.28525 -0.409278,-0.0827 -0.979786,-0.0827 h -0.768945 v 4.7501 h 0.768945 q 0.591179,0 1.029395,-0.0868 0.442351,-0.0868 0.810287,-0.32246 0.458887,-0.29352 0.686263,-0.77308 0.231511,-0.47956 0.231511,-1.19889 z m 4.34909,3.08405 h -2.43086 v -0.62839 h 0.806152 v -4.89893 H 25.79745 v -0.62838 h 2.43086 v 0.62838 h -0.806153 v 4.89893 h 0.806153 z m 6.24665,-6.1557 -2.240691,6.1557 h -1.091407 l -2.240691,-6.1557 h 0.876433 l 1.930632,5.41569 1.930633,-5.41569 z m 8.553486,4.26227 q 0,0.45889 -0.173633,0.81029 -0.173633,0.3514 -0.467155,0.57878 -0.347266,0.27285 -0.764811,0.3886 -0.413412,0.11576 -1.0542,0.11576 h -2.182813 v -6.1557 h 1.823145 q 0.673861,0 1.008724,0.0496 0.334864,0.0496 0.640788,0.2067 0.338998,0.17777 0.49196,0.45889 0.152962,0.27699 0.152962,0.66559 0,0.43822 -0.223242,0.74828 -0.223242,0.30592 -0.595313,0.49196 v 0.0331 q 0.624252,0.12816 0.98392,0.54984 0.359668,0.41754 0.359668,1.05833 z m -1.376661,-2.77399 q 0,-0.22324 -0.07441,-0.3762 -0.07441,-0.15297 -0.239778,-0.24805 -0.194304,-0.11162 -0.47129,-0.13643 -0.276985,-0.0289 -0.686263,-0.0289 h -0.975651 v 1.77767 h 1.058333 q 0.384473,0 0.61185,-0.0372 0.227376,-0.0413 0.421679,-0.16537 0.194304,-0.12402 0.272852,-0.31832 0.08268,-0.19844 0.08268,-0.46716 z m 0.525033,2.80706 q 0,-0.37207 -0.111621,-0.59117 -0.111621,-0.21911 -0.405143,-0.37207 -0.198438,-0.10336 -0.483692,-0.1323 -0.28112,-0.0331 -0.686263,-0.0331 h -1.28571 v 2.2903 h 1.083138 q 0.537435,0 0.880567,-0.0537 0.343132,-0.0579 0.56224,-0.20671 0.23151,-0.16123 0.338997,-0.36793 0.107487,-0.20671 0.107487,-0.53331 z m 5.539715,1.86036 h -0.77308 v -0.49196 q -0.103352,0.0703 -0.281119,0.19844 -0.173633,0.12402 -0.338998,0.19843 -0.194303,0.0951 -0.446485,0.1571 -0.252181,0.0661 -0.591178,0.0661 -0.624252,0 -1.058334,-0.41341 -0.434082,-0.41341 -0.434082,-1.0542 0,-0.52503 0.223242,-0.84749 0.227377,-0.3266 0.644922,-0.51263 0.42168,-0.18604 1.012859,-0.25218 0.591178,-0.0662 1.269173,-0.0992 v -0.11989 q 0,-0.26458 -0.09508,-0.43822 -0.09095,-0.17363 -0.264584,-0.27285 -0.165364,-0.0951 -0.396875,-0.12816 -0.23151,-0.0331 -0.483691,-0.0331 -0.305925,0 -0.68213,0.0827 -0.376204,0.0785 -0.777213,0.23151 h -0.04134 v -0.78961 q 0.227377,-0.062 0.657325,-0.13643 0.429948,-0.0744 0.847494,-0.0744 0.487825,0 0.847494,0.0827 0.363802,0.0786 0.628385,0.27285 0.26045,0.19017 0.396875,0.49196 0.136426,0.30179 0.136426,0.74828 z m -0.77308,-1.13688 v -1.28571 q -0.355534,0.0207 -0.839225,0.062 -0.479558,0.0413 -0.760678,0.11989 -0.334863,0.0951 -0.541569,0.29765 -0.206706,0.19844 -0.206706,0.54984 0,0.39688 0.239779,0.59945 0.239779,0.19843 0.731739,0.19843 0.409277,0 0.748275,-0.15709 0.338997,-0.16123 0.628385,-0.38447 z m 5.151109,-2.63344 h -0.04134 q -0.173633,-0.0413 -0.338998,-0.0579 -0.16123,-0.0207 -0.384472,-0.0207 -0.359668,0 -0.694532,0.16123 -0.334863,0.15709 -0.644922,0.40927 v 3.27836 h -0.777214 v -4.61781 h 0.777214 v 0.68213 q 0.463021,-0.37207 0.814421,-0.52503 0.355534,-0.1571 0.72347,-0.1571 0.202572,0 0.293522,0.0124 0.09095,0.008 0.272852,0.0372 z m 8.524547,3.32383 q -0.227376,0.0992 -0.413411,0.18604 -0.181901,0.0868 -0.479558,0.1819 -0.252181,0.0785 -0.549837,0.13229 -0.293522,0.0579 -0.649056,0.0579 -0.669727,0 -1.219565,-0.18604 -0.545703,-0.19017 -0.950846,-0.59118 -0.396876,-0.39274 -0.620118,-0.99632 -0.223242,-0.60771 -0.223242,-1.40973 0,-0.76068 0.214974,-1.36013 0.214974,-0.59944 0.620117,-1.01285 0.392741,-0.40101 0.946713,-0.61185 0.558106,-0.21084 1.236101,-0.21084 0.496094,0 0.988053,0.11989 0.496094,0.11989 1.099675,0.42168 v 0.97151 h -0.06201 q -0.508497,-0.42581 -1.008725,-0.62011 -0.500228,-0.19431 -1.070736,-0.19431 -0.467155,0 -0.84336,0.15297 -0.37207,0.14882 -0.665592,0.46715 -0.285254,0.31006 -0.446485,0.78548 -0.157096,0.47129 -0.157096,1.09141 0,0.64906 0.173633,1.11621 0.177767,0.46716 0.454752,0.76068 0.289389,0.30592 0.673861,0.45475 0.388607,0.14469 0.818555,0.14469 0.591179,0 1.107944,-0.20257 0.516764,-0.20257 0.967383,-0.60771 h 0.05788 z m 4.956808,0.44649 h -0.777213 v -2.6293 q 0,-0.31833 -0.03721,-0.59531 -0.03721,-0.28112 -0.136426,-0.43822 -0.103353,-0.17363 -0.297657,-0.25631 -0.194303,-0.0868 -0.504362,-0.0868 -0.318327,0 -0.665593,0.1571 -0.347265,0.15709 -0.665592,0.401 v 3.44786 h -0.777214 v -6.43269 h 0.777214 v 2.32751 q 0.363802,-0.30179 0.752409,-0.47129 0.388607,-0.1695 0.797884,-0.1695 0.748275,0 1.141016,0.45062 0.392741,0.45062 0.392741,1.29811 z m 5.084964,0 h -0.77308 v -0.49196 q -0.103353,0.0703 -0.28112,0.19844 -0.173633,0.12402 -0.338998,0.19843 -0.194303,0.0951 -0.446484,0.1571 -0.252181,0.0661 -0.591179,0.0661 -0.624251,0 -1.058334,-0.41341 -0.434082,-0.41341 -0.434082,-1.0542 0,-0.52503 0.223243,-0.84749 0.227376,-0.3266 0.644922,-0.51263 0.42168,-0.18604 1.012858,-0.25218 0.591179,-0.0662 1.269174,-0.0992 v -0.11989 q 0,-0.26458 -0.09508,-0.43822 -0.09095,-0.17363 -0.264583,-0.27285 -0.165365,-0.0951 -0.396875,-0.12816 -0.231511,-0.0331 -0.483692,-0.0331 -0.305925,0 -0.682129,0.0827 -0.376205,0.0785 -0.777214,0.23151 h -0.04134 v -0.78961 q 0.227376,-0.062 0.657324,-0.13643 0.429948,-0.0744 0.847494,-0.0744 0.487826,0 0.847494,0.0827 0.363802,0.0786 0.628386,0.27285 0.260449,0.19017 0.396875,0.49196 0.136426,0.30179 0.136426,0.74828 z m -0.77308,-1.13688 v -1.28571 q -0.355534,0.0207 -0.839226,0.062 -0.479557,0.0413 -0.760677,0.11989 -0.334864,0.0951 -0.541569,0.29765 -0.206706,0.19844 -0.206706,0.54984 0,0.39688 0.239779,0.59945 0.239778,0.19843 0.731738,0.19843 0.409278,0 0.748275,-0.15709 0.338998,-0.16123 0.628386,-0.38447 z m 5.151107,-2.63344 h -0.04134 q -0.173632,-0.0413 -0.338997,-0.0579 -0.161231,-0.0207 -0.384473,-0.0207 -0.359668,0 -0.694531,0.16123 -0.334864,0.15709 -0.644923,0.40927 v 3.27836 h -0.777213 v -4.61781 h 0.777213 v 0.68213 q 0.463021,-0.37207 0.814421,-0.52503 0.355534,-0.1571 0.723471,-0.1571 0.202571,0 0.293522,0.0124 0.09095,0.008 0.272852,0.0372 z m 3.129524,3.72898 q -0.219108,0.0579 -0.479557,0.0951 -0.256315,0.0372 -0.458887,0.0372 -0.706934,0 -1.07487,-0.38034 -0.367937,-0.38034 -0.367937,-1.21957 v -2.45566 h -0.525032 v -0.65319 h 0.525032 v -1.32705 h 0.777214 v 1.32705 h 1.604037 v 0.65319 h -1.604037 v 2.10426 q 0,0.36381 0.01654,0.57051 0.01654,0.20257 0.115755,0.38034 0.09095,0.16537 0.248047,0.24391 0.161231,0.0744 0.487826,0.0744 0.190169,0 0.396875,-0.0537 0.206706,-0.0579 0.297656,-0.0951 h 0.04134 z"
       id="text7"
       aria-label="DIV Bar Chart" />
    <path
       style="font-size:8.46667px;line-height:1.4;text-align:center;text-anchor:middle;stroke-width:3.128"
       d="m 126.90487,126.74311 q 0,0.35967 -0.1695,0.71107 -0.16536,0.3514 -0.46716,0.59531 -0.33072,0.26458 -0.77308,0.41341 -0.43821,0.14883 -1.05833,0.14883 -0.66559,0 -1.19889,-0.12403 -0.52917,-0.12402 -1.07901,-0.36793 v -1.02526 h 0.0579 q 0.46716,0.3886 1.07901,0.59944 0.61184,0.21084 1.14928,0.21084 0.76068,0 1.18236,-0.28525 0.42581,-0.28525 0.42581,-0.76068 0,-0.40927 -0.20257,-0.60358 -0.19844,-0.1943 -0.60772,-0.30179 -0.31005,-0.0827 -0.67386,-0.13642 -0.35967,-0.0538 -0.76481,-0.13643 -0.81855,-0.17363 -1.21543,-0.59118 -0.39274,-0.42168 -0.39274,-1.09554 0,-0.77308 0.65319,-1.26504 0.65319,-0.49609 1.65778,-0.49609 0.64906,0 1.19063,0.12402 0.54157,0.12402 0.95911,0.30592 v 0.96739 h -0.0579 q -0.3514,-0.29766 -0.92604,-0.49196 -0.57051,-0.19844 -1.16995,-0.19844 -0.65733,0 -1.05834,0.27285 -0.39687,0.27285 -0.39687,0.7028 0,0.38447 0.19844,0.60358 0.19843,0.21911 0.69866,0.33487 0.26458,0.0579 0.75241,0.14056 0.48783,0.0827 0.82682,0.1695 0.68627,0.1819 1.03353,0.54983 0.34727,0.36794 0.34727,1.0294 z m 6.1681,-4.3987 -2.24069,6.1557 h -1.09141 l -2.24069,-6.1557 h 0.87643 l 1.93064,5.41569 1.93063,-5.41569 z m 6.06888,5.70094 q -0.50436,0.23151 -1.10381,0.40515 -0.59531,0.1695 -1.15342,0.1695 -0.71933,0 -1.31878,-0.19844 -0.59944,-0.19844 -1.02112,-0.59531 -0.42582,-0.40101 -0.65733,-1.00046 -0.23151,-0.60358 -0.23151,-1.40973 0,-1.47588 0.8599,-2.32751 0.86403,-0.85576 2.36884,-0.85576 0.52504,0 1.07074,0.12815 0.54984,0.12403 1.18236,0.42582 v 0.97152 h -0.0744 q -0.12815,-0.0992 -0.37207,-0.26045 -0.24391,-0.16123 -0.47955,-0.26872 -0.28526,-0.12816 -0.64906,-0.21084 -0.35967,-0.0868 -0.81855,-0.0868 -1.03353,0 -1.63712,0.66559 -0.59944,0.66146 -0.59944,1.79421 0,1.19476 0.62838,1.86035 0.62839,0.66146 1.71153,0.66146 0.39687,0 0.78961,-0.0786 0.39688,-0.0785 0.69454,-0.20257 v -1.50895 h -1.64952 v -0.71934 h 2.4598 z m 9.04958,-1.43867 q 0,0.45889 -0.17363,0.81029 -0.17363,0.3514 -0.46716,0.57877 -0.34726,0.27286 -0.76481,0.38861 -0.41341,0.11576 -1.0542,0.11576 h -2.18281 v -6.1557 h 1.82315 q 0.67386,0 1.00872,0.0496 0.33486,0.0496 0.64079,0.2067 0.339,0.17777 0.49196,0.45889 0.15296,0.27699 0.15296,0.66559 0,0.43822 -0.22324,0.74828 -0.22324,0.30592 -0.59532,0.49196 v 0.0331 q 0.62426,0.12816 0.98392,0.54984 0.35967,0.41754 0.35967,1.05833 z m -1.37666,-2.77399 q 0,-0.22324 -0.0744,-0.3762 -0.0744,-0.15297 -0.23978,-0.24805 -0.1943,-0.11162 -0.47129,-0.13643 -0.27699,-0.0289 -0.68626,-0.0289 h -0.97565 v 1.77767 h 1.05833 q 0.38447,0 0.61185,-0.0372 0.22737,-0.0413 0.42168,-0.16537 0.1943,-0.12402 0.27285,-0.31833 0.0827,-0.19843 0.0827,-0.46715 z m 0.52503,2.80706 q 0,-0.37207 -0.11162,-0.59117 -0.11162,-0.21911 -0.40514,-0.37207 -0.19844,-0.10336 -0.48369,-0.1323 -0.28112,-0.0331 -0.68626,-0.0331 h -1.28571 v 2.2903 h 1.08313 q 0.53744,0 0.88057,-0.0537 0.34313,-0.0579 0.56224,-0.20671 0.23151,-0.16123 0.339,-0.36793 0.10748,-0.20671 0.10748,-0.53331 z m 5.53972,1.86036 h -0.77308 v -0.49196 q -0.10335,0.0703 -0.28112,0.19843 -0.17363,0.12403 -0.339,0.19844 -0.1943,0.0951 -0.44648,0.1571 -0.25218,0.0661 -0.59118,0.0661 -0.62425,0 -1.05833,-0.41341 -0.43408,-0.41341 -0.43408,-1.0542 0,-0.52503 0.22324,-0.84749 0.22737,-0.3266 0.64492,-0.51263 0.42168,-0.18604 1.01286,-0.25218 0.59118,-0.0661 1.26917,-0.0992 v -0.11989 q 0,-0.26458 -0.0951,-0.43822 -0.0909,-0.17363 -0.26459,-0.27285 -0.16536,-0.0951 -0.39687,-0.12816 -0.23151,-0.0331 -0.48369,-0.0331 -0.30593,0 -0.68213,0.0827 -0.37621,0.0786 -0.77722,0.23151 h -0.0413 v -0.78961 q 0.22738,-0.062 0.65733,-0.13643 0.42995,-0.0744 0.84749,-0.0744 0.48783,0 0.84749,0.0827 0.36381,0.0786 0.62839,0.27285 0.26045,0.19017 0.39688,0.49196 0.13642,0.30179 0.13642,0.74828 z m -0.77308,-1.13689 v -1.28571 q -0.35553,0.0207 -0.83922,0.062 -0.47956,0.0413 -0.76068,0.11989 -0.33486,0.0951 -0.54157,0.29765 -0.20671,0.19844 -0.20671,0.54984 0,0.39687 0.23978,0.59945 0.23978,0.19843 0.73174,0.19843 0.40928,0 0.74828,-0.15709 0.33899,-0.16123 0.62838,-0.38448 z m 5.15111,-2.63343 h -0.0413 q -0.17363,-0.0413 -0.339,-0.0579 -0.16123,-0.0207 -0.38447,-0.0207 -0.35967,0 -0.69453,0.16124 -0.33487,0.15709 -0.64492,0.40927 v 3.27836 h -0.77722 v -4.61781 h 0.77722 v 0.68213 q 0.46302,-0.37207 0.81442,-0.52503 0.35553,-0.1571 0.72347,-0.1571 0.20257,0 0.29352,0.0124 0.0909,0.008 0.27285,0.0372 z m 8.52455,3.32383 q -0.22738,0.0992 -0.41342,0.18604 -0.1819,0.0868 -0.47955,0.1819 -0.25218,0.0786 -0.54984,0.13229 -0.29352,0.0579 -0.64906,0.0579 -0.66972,0 -1.21956,-0.18604 -0.5457,-0.19017 -0.95085,-0.59118 -0.39687,-0.39274 -0.62012,-0.99632 -0.22324,-0.60771 -0.22324,-1.40973 0,-0.76068 0.21498,-1.36013 0.21497,-0.59944 0.62011,-1.01285 0.39274,-0.40101 0.94672,-0.61185 0.5581,-0.21084 1.2361,-0.21084 0.49609,0 0.98805,0.11989 0.49609,0.11989 1.09968,0.42168 v 0.97151 h -0.062 q -0.50849,-0.42581 -1.00872,-0.62011 -0.50023,-0.19431 -1.07074,-0.19431 -0.46715,0 -0.84336,0.15296 -0.37207,0.14883 -0.66559,0.46716 -0.28525,0.31006 -0.44648,0.78548 -0.1571,0.47129 -0.1571,1.09141 0,0.64905 0.17363,1.11621 0.17777,0.46715 0.45476,0.76068 0.28938,0.30592 0.67386,0.45475 0.3886,0.14469 0.81855,0.14469 0.59118,0 1.10795,-0.20257 0.51676,-0.20257 0.96738,-0.60771 h 0.0579 z m 4.9568,0.44649 h -0.77721 v -2.6293 q 0,-0.31833 -0.0372,-0.59531 -0.0372,-0.28112 -0.13642,-0.43822 -0.10336,-0.17363 -0.29766,-0.25632 -0.1943,-0.0868 -0.50436,-0.0868 -0.31833,0 -0.66559,0.15709 -0.34727,0.1571 -0.6656,0.40101 v 3.44786 h -0.77721 v -6.43269 h 0.77721 v 2.32751 q 0.36381,-0.30179 0.75241,-0.47129 0.38861,-0.1695 0.79789,-0.1695 0.74827,0 1.14101,0.45062 0.39274,0.45062 0.39274,1.29811 z m 5.08497,0 h -0.77308 v -0.49196 q -0.10336,0.0703 -0.28112,0.19843 -0.17364,0.12403 -0.339,0.19844 -0.1943,0.0951 -0.44648,0.1571 -0.25219,0.0661 -0.59118,0.0661 -0.62425,0 -1.05834,-0.41341 -0.43408,-0.41341 -0.43408,-1.0542 0,-0.52503 0.22324,-0.84749 0.22738,-0.3266 0.64493,-0.51263 0.42168,-0.18604 1.01285,-0.25218 0.59118,-0.0661 1.26918,-0.0992 v -0.11989 q 0,-0.26458 -0.0951,-0.43822 -0.091,-0.17363 -0.26458,-0.27285 -0.16537,-0.0951 -0.39688,-0.12816 -0.23151,-0.0331 -0.48369,-0.0331 -0.30592,0 -0.68213,0.0827 -0.3762,0.0786 -0.77721,0.23151 h -0.0413 v -0.78961 q 0.22737,-0.062 0.65732,-0.13643 0.42995,-0.0744 0.8475,-0.0744 0.48782,0 0.84749,0.0827 0.3638,0.0786 0.62839,0.27285 0.26045,0.19017 0.39687,0.49196 0.13643,0.30179 0.13643,0.74828 z m -0.77308,-1.13689 v -1.28571 q -0.35554,0.0207 -0.83923,0.062 -0.47956,0.0413 -0.76068,0.11989 -0.33486,0.0951 -0.54156,0.29765 -0.20671,0.19844 -0.20671,0.54984 0,0.39687 0.23978,0.59945 0.23978,0.19843 0.73174,0.19843 0.40927,0 0.74827,-0.15709 0.339,-0.16123 0.62839,-0.38448 z m 5.1511,-2.63343 h -0.0413 q -0.17363,-0.0413 -0.33899,-0.0579 -0.16124,-0.0207 -0.38448,-0.0207 -0.35967,0 -0.69453,0.16124 -0.33486,0.15709 -0.64492,0.40927 v 3.27836 h -0.77721 v -4.61781 h 0.77721 v 0.68213 q 0.46302,-0.37207 0.81442,-0.52503 0.35553,-0.1571 0.72347,-0.1571 0.20257,0 0.29352,0.0124 0.091,0.008 0.27285,0.0372 z m 3.12953,3.72898 q -0.21911,0.0579 -0.47956,0.0951 -0.25631,0.0372 -0.45889,0.0372 -0.70693,0 -1.07487,-0.38034 -0.36793,-0.38034 -0.36793,-1.21957 v -2.45566 h -0.52503 v -0.65319 h 0.52503 v -1.32705 h 0.77721 v 1.32705 h 1.60404 v 0.65319 h -1.60404 v 2.10426 q 0,0.36381 0.0165,0.57051 0.0165,0.20257 0.11575,0.38034 0.0909,0.16537 0.24805,0.24391 0.16123,0.0744 0.48783,0.0744 0.19017,0 0.39687,-0.0537 0.20671,-0.0579 0.29766,-0.0951 h 0.0413 z"
       id="text7-4"
       aria-label="SVG Bar Chart" />
    <path
       style="font-size:8.46667px;line-height:1.4;text-align:center;text-anchor:middle;stroke-width:3.128"
       d="m 26.513292,217.51783 q 0,0.45889 -0.173633,0.81029 -0.173633,0.3514 -0.467155,0.57877 -0.347266,0.27285 -0.764812,0.38861 -0.413411,0.11575 -1.054199,0.11575 h -2.182814 v -6.15569 h 1.823145 q 0.673861,0 1.008725,0.0496 0.334863,0.0496 0.640788,0.2067 0.338997,0.17777 0.49196,0.45889 0.152962,0.27698 0.152962,0.66559 0,0.43822 -0.223242,0.74828 -0.223243,0.30592 -0.595313,0.49196 v 0.0331 q 0.624252,0.12816 0.98392,0.54984 0.359668,0.41754 0.359668,1.05833 z m -1.376661,-2.77399 q 0,-0.22324 -0.07441,-0.37621 -0.07441,-0.15296 -0.239779,-0.24804 -0.194303,-0.11163 -0.471289,-0.13643 -0.276986,-0.0289 -0.686263,-0.0289 h -0.975652 v 1.77767 h 1.058334 q 0.384473,0 0.611849,-0.0372 0.227377,-0.0413 0.42168,-0.16536 0.194304,-0.12402 0.272852,-0.31833 0.08268,-0.19843 0.08268,-0.46715 z m 0.525033,2.80706 q 0,-0.37207 -0.111621,-0.59118 -0.111621,-0.2191 -0.405144,-0.37207 -0.198437,-0.10335 -0.483691,-0.13229 -0.28112,-0.0331 -0.686264,-0.0331 h -1.28571 v 2.2903 h 1.083139 q 0.537435,0 0.880566,-0.0537 0.343132,-0.0579 0.56224,-0.20671 0.231511,-0.16123 0.338998,-0.36794 0.107487,-0.2067 0.107487,-0.5333 z m 5.779494,1.86035 h -0.777213 v -0.51263 q -0.392741,0.31006 -0.75241,0.47543 -0.359668,0.16536 -0.79375,0.16536 -0.727604,0 -1.132748,-0.44235 -0.405143,-0.44648 -0.405143,-1.30638 v -2.99723 h 0.777214 v 2.62929 q 0,0.3514 0.03307,0.60359 0.03307,0.24804 0.14056,0.42581 0.111621,0.1819 0.289388,0.26458 0.177767,0.0827 0.516764,0.0827 0.301791,0 0.657325,-0.1571 0.359668,-0.1571 0.669727,-0.40101 v -3.44785 h 0.777213 z m 5.59346,-2.34404 q 0,0.57878 -0.165365,1.0418 -0.16123,0.46302 -0.438216,0.77721 -0.293522,0.3266 -0.644922,0.49196 -0.3514,0.16123 -0.77308,0.16123 -0.392741,0 -0.686263,-0.0951 -0.293523,-0.091 -0.578777,-0.24805 l -0.04961,0.21497 h -0.727604 v -6.43268 h 0.777213 v 2.29857 q 0.326596,-0.26872 0.694532,-0.43822 0.367936,-0.17363 0.826823,-0.17363 0.818555,0 1.289844,0.62839 0.475424,0.62838 0.475424,1.77353 z m -0.802019,0.0207 q 0,-0.82682 -0.272851,-1.25264 -0.272852,-0.42994 -0.880567,-0.42994 -0.338998,0 -0.686263,0.14882 -0.347266,0.1447 -0.644923,0.37621 v 2.64583 q 0.33073,0.14883 0.566374,0.20671 0.239779,0.0579 0.54157,0.0579 0.644922,0 1.008724,-0.42168 0.367936,-0.42582 0.367936,-1.33119 z m 6.077151,-0.0207 q 0,0.57878 -0.165365,1.0418 -0.16123,0.46302 -0.438216,0.77721 -0.293522,0.3266 -0.644922,0.49196 -0.3514,0.16123 -0.77308,0.16123 -0.392741,0 -0.686263,-0.0951 -0.293522,-0.091 -0.578776,-0.24805 l -0.04961,0.21497 h -0.727604 v -6.43268 h 0.777214 v 2.29857 q 0.326595,-0.26872 0.694531,-0.43822 0.367937,-0.17363 0.826823,-0.17363 0.818555,0 1.289845,0.62839 0.475423,0.62838 0.475423,1.77353 z m -0.802019,0.0207 q 0,-0.82682 -0.272851,-1.25264 -0.272852,-0.42994 -0.880567,-0.42994 -0.338997,0 -0.686263,0.14882 -0.347266,0.1447 -0.644922,0.37621 v 2.64583 q 0.330729,0.14883 0.566374,0.20671 0.239778,0.0579 0.541569,0.0579 0.644922,0 1.008724,-0.42168 0.367936,-0.42582 0.367936,-1.33119 z m 2.798798,2.32337 h -0.777214 v -6.43268 h 0.777214 z m 5.403288,-2.22828 H 46.30744 q 0,0.42581 0.128157,0.74414 0.128158,0.31419 0.3514,0.51676 0.214974,0.19844 0.508497,0.29766 0.297656,0.0992 0.65319,0.0992 0.471289,0 0.946713,-0.18604 0.479557,-0.19017 0.682129,-0.37207 h 0.04134 v 0.84749 q -0.392741,0.16537 -0.802019,0.27699 -0.409277,0.11162 -0.859896,0.11162 -1.149284,0 -1.794206,-0.62012 -0.644922,-0.62425 -0.644922,-1.7694 0,-1.13275 0.615983,-1.79834 0.620117,-0.66559 1.628842,-0.66559 0.93431,0 1.438672,0.5457 0.508496,0.54571 0.508496,1.5503 z m -0.756543,-0.59532 q -0.0041,-0.61185 -0.310059,-0.94671 -0.30179,-0.33486 -0.921907,-0.33486 -0.624252,0 -0.996322,0.36793 -0.367937,0.36794 -0.417546,0.91364 z m 9.727578,2.37712 q -0.227377,0.0992 -0.413412,0.18604 -0.181901,0.0868 -0.479558,0.1819 -0.252181,0.0785 -0.549837,0.13229 -0.293522,0.0579 -0.649056,0.0579 -0.669727,0 -1.219565,-0.18604 -0.545703,-0.19017 -0.950846,-0.59118 -0.396875,-0.39274 -0.620118,-0.99632 -0.223242,-0.60771 -0.223242,-1.40973 0,-0.76068 0.214974,-1.36013 0.214974,-0.59944 0.620118,-1.01286 0.392741,-0.40101 0.946712,-0.61185 0.558106,-0.21084 1.236101,-0.21084 0.496094,0 0.988054,0.11989 0.496094,0.11989 1.099675,0.42168 v 0.97152 h -0.06201 q -0.508496,-0.42581 -1.008725,-0.62012 -0.500228,-0.1943 -1.070736,-0.1943 -0.467155,0 -0.843359,0.15296 -0.372071,0.14883 -0.665593,0.46716 -0.285254,0.31006 -0.446485,0.78548 -0.157096,0.47129 -0.157096,1.09141 0,0.64905 0.173633,1.11621 0.177767,0.46715 0.454753,0.76068 0.289388,0.30592 0.673861,0.45475 0.388607,0.14469 0.818555,0.14469 0.591178,0 1.107943,-0.20257 0.516764,-0.20257 0.967383,-0.60771 h 0.05788 z m 4.956804,0.44648 h -0.777214 v -2.62929 q 0,-0.31833 -0.03721,-0.59532 -0.03721,-0.28112 -0.136426,-0.43821 -0.103353,-0.17363 -0.297656,-0.25632 -0.194304,-0.0868 -0.504362,-0.0868 -0.318327,0 -0.665593,0.15709 -0.347266,0.1571 -0.665593,0.40101 v 3.44785 h -0.777214 v -6.43268 h 0.777214 v 2.32751 q 0.363802,-0.30179 0.752409,-0.47129 0.388607,-0.1695 0.797885,-0.1695 0.748275,0 1.141016,0.45062 0.392741,0.45062 0.392741,1.29811 z m 5.084963,0 h -0.77308 v -0.49195 q -0.103353,0.0703 -0.28112,0.19843 -0.173633,0.12403 -0.338997,0.19844 -0.194304,0.0951 -0.446485,0.1571 -0.252181,0.0661 -0.591178,0.0661 -0.624252,0 -1.058334,-0.41341 -0.434082,-0.41341 -0.434082,-1.0542 0,-0.52503 0.223242,-0.84749 0.227376,-0.3266 0.644922,-0.51263 0.42168,-0.18604 1.012859,-0.25218 0.591178,-0.0661 1.269173,-0.0992 v -0.11989 q 0,-0.26459 -0.09508,-0.43822 -0.09095,-0.17363 -0.264584,-0.27285 -0.165365,-0.0951 -0.396875,-0.12816 -0.231511,-0.0331 -0.483692,-0.0331 -0.305924,0 -0.682129,0.0827 -0.376204,0.0786 -0.777214,0.23151 h -0.04134 v -0.78961 q 0.227377,-0.062 0.657325,-0.13643 0.429948,-0.0744 0.847494,-0.0744 0.487825,0 0.847493,0.0827 0.363803,0.0786 0.628386,0.27285 0.260449,0.19017 0.396875,0.49196 0.136426,0.30179 0.136426,0.74827 z m -0.77308,-1.13688 v -1.28571 q -0.355534,0.0207 -0.839225,0.062 -0.479558,0.0413 -0.760678,0.11989 -0.334863,0.0951 -0.541569,0.29766 -0.206706,0.19844 -0.206706,0.54984 0,0.39687 0.239779,0.59944 0.239779,0.19844 0.731739,0.19844 0.409277,0 0.748275,-0.15709 0.338997,-0.16123 0.628385,-0.38448 z m 5.151107,-2.63343 h -0.04134 q -0.173633,-0.0413 -0.338998,-0.0579 -0.16123,-0.0207 -0.384472,-0.0207 -0.359669,0 -0.694532,0.16123 -0.334863,0.1571 -0.644922,0.40928 v 3.27835 h -0.777214 v -4.6178 h 0.777214 v 0.68213 q 0.463021,-0.37207 0.814421,-0.52504 0.355534,-0.15709 0.72347,-0.15709 0.202572,0 0.293522,0.0124 0.09095,0.008 0.272852,0.0372 z m 3.129529,3.72897 q -0.219108,0.0579 -0.479558,0.0951 -0.256315,0.0372 -0.458887,0.0372 -0.706934,0 -1.07487,-0.38034 -0.367936,-0.38034 -0.367936,-1.21957 v -2.45566 h -0.525033 v -0.65319 h 0.525033 v -1.32705 h 0.777214 v 1.32705 h 1.604037 v 0.65319 h -1.604037 v 2.10426 q 0,0.3638 0.01654,0.57051 0.01654,0.20257 0.115755,0.38034 0.09095,0.16536 0.248047,0.24391 0.161231,0.0744 0.487826,0.0744 0.190169,0 0.396875,-0.0537 0.206706,-0.0579 0.297657,-0.0951 h 0.04134 z"
       id="text7-4-0"
       aria-label="Bubble Chart" />
    <path
       style="font-size:8.46667px;line-height:1.4;text-align:center;text-anchor:middle;stroke-width:3.128"
       d="m 128.6116,218.16006 q 0,0.45888 -0.17363,0.81028 -0.17364,0.3514 -0.46716,0.57878 -0.34726,0.27285 -0.76481,0.38861 -0.41341,0.11575 -1.0542,0.11575 h -2.18281 v -6.1557 h 1.82314 q 0.67386,0 1.00873,0.0496 0.33486,0.0496 0.64078,0.20671 0.339,0.17777 0.49196,0.45889 0.15297,0.27698 0.15297,0.66559 0,0.43821 -0.22325,0.74827 -0.22324,0.30593 -0.59531,0.49196 v 0.0331 q 0.62425,0.12815 0.98392,0.54983 0.35967,0.41755 0.35967,1.05834 z m -1.37666,-2.774 q 0,-0.22324 -0.0744,-0.3762 -0.0744,-0.15296 -0.23977,-0.24805 -0.19431,-0.11162 -0.47129,-0.13642 -0.27699,-0.0289 -0.68627,-0.0289 h -0.97565 v 1.77767 h 1.05834 q 0.38447,0 0.61184,-0.0372 0.22738,-0.0413 0.42168,-0.16536 0.19431,-0.12403 0.27286,-0.31833 0.0827,-0.19844 0.0827,-0.46716 z m 0.52503,2.80707 q 0,-0.37207 -0.11162,-0.59118 -0.11162,-0.21911 -0.40514,-0.37207 -0.19844,-0.10335 -0.4837,-0.13229 -0.28112,-0.0331 -0.68626,-0.0331 h -1.28571 v 2.2903 h 1.08314 q 0.53743,0 0.88057,-0.0537 0.34313,-0.0579 0.56224,-0.2067 0.23151,-0.16123 0.33899,-0.36794 0.10749,-0.20671 0.10749,-0.5333 z m 5.7795,1.86035 h -0.77722 v -0.51263 q -0.39274,0.31006 -0.75241,0.47543 -0.35967,0.16536 -0.79375,0.16536 -0.7276,0 -1.13275,-0.44235 -0.40514,-0.44649 -0.40514,-1.30638 v -2.99724 h 0.77721 v 2.6293 q 0,0.3514 0.0331,0.60358 0.0331,0.24805 0.14056,0.42582 0.11162,0.1819 0.28939,0.26458 0.17776,0.0827 0.51676,0.0827 0.30179,0 0.65732,-0.15709 0.35967,-0.1571 0.66973,-0.40101 v -3.44786 h 0.77722 z m 5.59346,-2.34404 q 0,0.57877 -0.16537,1.0418 -0.16123,0.46302 -0.43822,0.77721 -0.29352,0.32659 -0.64492,0.49196 -0.3514,0.16123 -0.77308,0.16123 -0.39274,0 -0.68626,-0.0951 -0.29352,-0.0909 -0.57878,-0.24804 l -0.0496,0.21497 h -0.7276 v -6.43268 h 0.77721 v 2.29857 q 0.3266,-0.26872 0.69453,-0.43822 0.36794,-0.17363 0.82683,-0.17363 0.81855,0 1.28984,0.62838 0.47543,0.62839 0.47543,1.77354 z m -0.80202,0.0207 q 0,-0.82682 -0.27286,-1.25264 -0.27285,-0.42995 -0.88056,-0.42995 -0.339,0 -0.68627,0.14883 -0.34726,0.1447 -0.64492,0.37621 v 2.64583 q 0.33073,0.14883 0.56638,0.20671 0.23978,0.0579 0.54157,0.0579 0.64492,0 1.00872,-0.42168 0.36794,-0.42581 0.36794,-1.33118 z m 6.07715,-0.0207 q 0,0.57877 -0.16537,1.0418 -0.16123,0.46302 -0.43821,0.77721 -0.29353,0.32659 -0.64493,0.49196 -0.3514,0.16123 -0.77308,0.16123 -0.39274,0 -0.68626,-0.0951 -0.29352,-0.0909 -0.57878,-0.24804 l -0.0496,0.21497 h -0.72761 v -6.43268 h 0.77721 v 2.29857 q 0.3266,-0.26872 0.69454,-0.43822 0.36793,-0.17363 0.82682,-0.17363 0.81855,0 1.28984,0.62838 0.47543,0.62839 0.47543,1.77354 z m -0.80202,0.0207 q 0,-0.82682 -0.27285,-1.25264 -0.27285,-0.42995 -0.88057,-0.42995 -0.339,0 -0.68626,0.14883 -0.34727,0.1447 -0.64493,0.37621 v 2.64583 q 0.33073,0.14883 0.56638,0.20671 0.23978,0.0579 0.54157,0.0579 0.64492,0 1.00872,-0.42168 0.36794,-0.42581 0.36794,-1.33118 z m 2.7988,2.32337 h -0.77722 v -6.43268 h 0.77722 z m 5.40328,-2.22829 h -3.40237 q 0,0.42582 0.12815,0.74414 0.12816,0.3142 0.3514,0.51677 0.21498,0.19844 0.5085,0.29766 0.29766,0.0992 0.65319,0.0992 0.47129,0 0.94671,-0.18603 0.47956,-0.19017 0.68213,-0.37207 h 0.0413 v 0.84749 q -0.39274,0.16537 -0.80201,0.27699 -0.40928,0.11162 -0.8599,0.11162 -1.14928,0 -1.79421,-0.62012 -0.64492,-0.62425 -0.64492,-1.7694 0,-1.13275 0.61598,-1.79834 0.62012,-0.66559 1.62885,-0.66559 0.93431,0 1.43867,0.5457 0.50849,0.5457 0.50849,1.55029 z m -0.75654,-0.59531 q -0.004,-0.61185 -0.31006,-0.94671 -0.30179,-0.33487 -0.92191,-0.33487 -0.62425,0 -0.99632,0.36794 -0.36793,0.36794 -0.41754,0.91364 z m 9.72758,2.37712 q -0.22738,0.0992 -0.41341,0.18603 -0.1819,0.0868 -0.47956,0.1819 -0.25218,0.0786 -0.54984,0.1323 -0.29352,0.0579 -0.64905,0.0579 -0.66973,0 -1.21957,-0.18603 -0.5457,-0.19017 -0.95085,-0.59118 -0.39687,-0.39274 -0.62011,-0.99632 -0.22324,-0.60772 -0.22324,-1.40974 0,-0.76067 0.21497,-1.36012 0.21497,-0.59945 0.62012,-1.01286 0.39274,-0.40101 0.94671,-0.61185 0.5581,-0.21084 1.2361,-0.21084 0.49609,0 0.98805,0.11989 0.4961,0.11989 1.09968,0.42168 v 0.97152 h -0.062 q -0.5085,-0.42582 -1.00873,-0.62012 -0.50023,-0.1943 -1.07073,-0.1943 -0.46716,0 -0.84336,0.15296 -0.37207,0.14883 -0.6656,0.46715 -0.28525,0.31006 -0.44648,0.78549 -0.1571,0.47129 -0.1571,1.0914 0,0.64906 0.17364,1.11622 0.17776,0.46715 0.45475,0.76067 0.28939,0.30593 0.67386,0.45476 0.38861,0.14469 0.81855,0.14469 0.59118,0 1.10795,-0.20257 0.51676,-0.20257 0.96738,-0.60772 h 0.0579 z m 1.88102,0.44648 h -0.77721 v -6.43268 h 0.77721 z m 5.47357,-2.30683 q 0,1.12861 -0.57878,1.7818 -0.57877,0.65319 -1.55029,0.65319 -0.97979,0 -1.55856,-0.65319 -0.57464,-0.65319 -0.57464,-1.7818 0,-1.12862 0.57464,-1.78181 0.57877,-0.65732 1.55856,-0.65732 0.97152,0 1.55029,0.65732 0.57878,0.65319 0.57878,1.78181 z m -0.80202,0 q 0,-0.89711 -0.3514,-1.33119 -0.3514,-0.43822 -0.97565,-0.43822 -0.63252,0 -0.98392,0.43822 -0.34727,0.43408 -0.34727,1.33119 0,0.86816 0.3514,1.31878 0.3514,0.44648 0.97979,0.44648 0.62012,0 0.97152,-0.44235 0.35553,-0.44648 0.35553,-1.32291 z m 5.83324,2.30683 h -0.77722 v -0.51263 q -0.39274,0.31006 -0.7524,0.47543 -0.35967,0.16536 -0.79376,0.16536 -0.7276,0 -1.13274,-0.44235 -0.40515,-0.44649 -0.40515,-1.30638 v -2.99724 h 0.77722 v 2.6293 q 0,0.3514 0.0331,0.60358 0.0331,0.24805 0.14056,0.42582 0.11162,0.1819 0.28939,0.26458 0.17777,0.0827 0.51676,0.0827 0.30179,0 0.65733,-0.15709 0.35967,-0.1571 0.66972,-0.40101 v -3.44786 h 0.77722 z m 5.27513,0 h -0.77721 v -0.48369 q -0.33487,0.28939 -0.69867,0.45062 -0.3638,0.16123 -0.78962,0.16123 -0.82682,0 -1.31464,-0.63665 -0.4837,-0.63666 -0.4837,-1.76527 0,-0.58705 0.16537,-1.04593 0.1695,-0.45889 0.45475,-0.78135 0.28112,-0.31419 0.65319,-0.47956 0.37621,-0.16536 0.77722,-0.16536 0.3638,0 0.64492,0.0785 0.28112,0.0744 0.59118,0.23565 v -2.00091 h 0.77721 z m -0.77721,-1.13688 v -2.64997 q -0.3142,-0.14056 -0.56224,-0.1943 -0.24805,-0.0538 -0.54157,-0.0538 -0.65319,0 -1.01699,0.45476 -0.36381,0.45475 -0.36381,1.28984 0,0.82269 0.28112,1.25264 0.28112,0.42581 0.90124,0.42581 0.33073,0 0.66973,-0.14469 0.33899,-0.14883 0.63252,-0.38034 z"
       id="text7-4-0-7"
       aria-label="Bubble Cloud" />
    <rect
       style="fill:#ffffff;fill-opacity:1;stroke-width:3.12801"
       id="rect7"
       width="87.641647"
       height="56.942314"
       x="6.9321074"
       y="56.942314" />
    <rect
       style="fill:#ffffff;fill-opacity:1;stroke-width:3.12801"
       id="rect8"
       width="85.661049"
       height="57.932613"
       x="113.38947"
       y="54.961712" />
    <rect
       style="fill:#ffffff;fill-opacity:1;stroke-width:3.12801"
       id="rect9"
       width="86.156197"
       height="57.437466"
       x="6.9321074"
       y="144.08881" />
    <rect
       style="fill:#ffffff;fill-opacity:1;stroke-width:3.12801"
       id="rect10"
       width="89.127098"
       height="57.932613"
       x="112.39918"
       y="142.10822" />
    <rect
       style="fill:#ff6600;fill-opacity:1;stroke-width:3.12801"
       id="rect11"
       width="62.884121"
       height="4.9515057"
       x="13.864215"
       y="65.359871" />
    <rect
       style="fill:#ff6600;fill-opacity:1;stroke-width:3.12801"
       id="rect12"
       width="44.068401"
       height="5.9418068"
       x="12.873915"
       y="74.272583" />
    <rect
       style="fill:#ff6600;fill-opacity:1;stroke-width:3.12801"
       id="rect13"
       width="35.650841"
       height="5.4466562"
       x="12.873915"
       y="88.136803" />
    <rect
       style="fill:#ff6600;fill-opacity:1;stroke-width:3.12801"
       id="rect14"
       width="22.281775"
       height="6.9321074"
       x="118.83613"
       y="63.874424" />
    <rect
       style="fill:#ff6600;fill-opacity:1;stroke-width:3.12801"
       id="rect15"
       width="59.418064"
       height="6.4369574"
       x="118.34098"
       y="74.272583" />
    <rect
       style="fill:#ff6600;fill-opacity:1;stroke-width:3.12801"
       id="rect16"
       width="71.301682"
       height="6.4369574"
       x="116.85554"
       y="85.661049" />
    <ellipse
       style="fill:#ff6600;fill-opacity:1;stroke-width:3.12801"
       id="path16"
       cx="24.757528"
       cy="156.71516"
       rx="4.4563551"
       ry="4.7039304" />
    <ellipse
       style="fill:#ff6600;fill-opacity:1;stroke-width:3.12801"
       id="path17"
       cx="39.612045"
       cy="170.3318"
       rx="4.4563551"
       ry="3.9612043" />
    <circle
       style="fill:#ff6600;fill-opacity:1;stroke-width:3.12801"
       id="path18"
       cx="56.199589"
       cy="181.96783"
       r="2.7233281" />
    <circle
       style="fill:#ff6600;fill-opacity:1;stroke-width:3.12801"
       id="path19"
       cx="69.816231"
       cy="191.12811"
       r="2.4757528" />
    <ellipse
       style="fill:#ff6600;fill-opacity:1;stroke-width:3.12801"
       id="path20"
       cx="149.04031"
       cy="159.93362"
       rx="7.9224086"
       ry="6.4369574" />
    <ellipse
       style="fill:#ff6600;fill-opacity:1;stroke-width:3.12801"
       id="path21"
       cx="138.39459"
       cy="184.93874"
       rx="7.6748338"
       ry="6.1893821" />
    <ellipse
       style="fill:#ff6600;fill-opacity:1;stroke-width:3.12801"
       id="path22"
       cx="177.2639"
       cy="178.74936"
       rx="6.4369574"
       ry="5.4466562" />
    <path
       style="fill:#000000;fill-opacity:1;stroke-width:3.12801"
       d="m 11.883613,149.04032 c 0,48.52475 -0.49515,48.52475 -0.49515,48.52475"
       id="path23" />
    <path
       style="fill:#0000ff;fill-opacity:1;stroke-width:3.12801"
       d="m 76.253186,198.06023 c -65.359874,0 -65.359874,0 -65.359874,0"
       id="path24" />
    <ellipse
       style="fill:#0000ff;fill-opacity:1;stroke-width:3.12801"
       id="path25"
       cx="155.72484"
       cy="178.2542"
       rx="7.1796832"
       ry="5.9418068" />
    <ellipse
       style="fill:#0000ff;fill-opacity:1;stroke-width:3.12801"
       id="path26"
       cx="131.95763"
       cy="166.61816"
       rx="7.6748338"
       ry="7.1796832" />
    <circle
       style="fill:#0000ff;fill-opacity:1;stroke-width:3.12801"
       id="path27"
       cx="170.82693"
       cy="164.38998"
       r="5.9418068" />
    <path
       style="fill:#0000ff;fill-opacity:1;stroke-width:3.12801"
       d="m 78.728939,196.07962 c -67.835627,-0.9903 -67.835627,-0.9903 -67.835627,-0.9903 v 0 -0.49515 0"
       id="path30" />
  </g>
</svg>
